%TF.GenerationSoftware,KiCad,Pcbnew,7.0.9*%
%TF.CreationDate,2023-12-17T12:43:31-08:00*%
%TF.ProjectId,bt_aux,62745f61-7578-42e6-9b69-6361645f7063,rev?*%
%TF.SameCoordinates,Original*%
%TF.FileFunction,Soldermask,Top*%
%TF.FilePolarity,Negative*%
%FSLAX46Y46*%
G04 Gerber Fmt 4.6, Leading zero omitted, Abs format (unit mm)*
G04 Created by KiCad (PCBNEW 7.0.9) date 2023-12-17 12:43:31*
%MOMM*%
%LPD*%
G01*
G04 APERTURE LIST*
G04 Aperture macros list*
%AMRoundRect*
0 Rectangle with rounded corners*
0 $1 Rounding radius*
0 $2 $3 $4 $5 $6 $7 $8 $9 X,Y pos of 4 corners*
0 Add a 4 corners polygon primitive as box body*
4,1,4,$2,$3,$4,$5,$6,$7,$8,$9,$2,$3,0*
0 Add four circle primitives for the rounded corners*
1,1,$1+$1,$2,$3*
1,1,$1+$1,$4,$5*
1,1,$1+$1,$6,$7*
1,1,$1+$1,$8,$9*
0 Add four rect primitives between the rounded corners*
20,1,$1+$1,$2,$3,$4,$5,0*
20,1,$1+$1,$4,$5,$6,$7,0*
20,1,$1+$1,$6,$7,$8,$9,0*
20,1,$1+$1,$8,$9,$2,$3,0*%
G04 Aperture macros list end*
%ADD10RoundRect,0.250000X0.475000X-0.250000X0.475000X0.250000X-0.475000X0.250000X-0.475000X-0.250000X0*%
%ADD11RoundRect,0.250000X-0.475000X0.250000X-0.475000X-0.250000X0.475000X-0.250000X0.475000X0.250000X0*%
%ADD12C,1.200000*%
%ADD13RoundRect,0.102000X0.750000X1.750000X-0.750000X1.750000X-0.750000X-1.750000X0.750000X-1.750000X0*%
%ADD14RoundRect,0.250000X-0.262500X-0.450000X0.262500X-0.450000X0.262500X0.450000X-0.262500X0.450000X0*%
%ADD15RoundRect,0.250000X0.250000X0.475000X-0.250000X0.475000X-0.250000X-0.475000X0.250000X-0.475000X0*%
%ADD16R,1.700000X1.700000*%
%ADD17O,1.700000X1.700000*%
%ADD18RoundRect,0.250000X-0.250000X-0.475000X0.250000X-0.475000X0.250000X0.475000X-0.250000X0.475000X0*%
%ADD19RoundRect,0.100000X0.637500X0.100000X-0.637500X0.100000X-0.637500X-0.100000X0.637500X-0.100000X0*%
G04 APERTURE END LIST*
D10*
%TO.C,C8*%
X153035000Y-102820000D03*
X153035000Y-100920000D03*
%TD*%
D11*
%TO.C,C13*%
X140970000Y-105156000D03*
X140970000Y-107056000D03*
%TD*%
D12*
%TO.C,J3*%
X166692000Y-103310000D03*
X160692000Y-103310000D03*
D13*
X164592000Y-107060000D03*
X166592000Y-99560000D03*
X159592000Y-99560000D03*
%TD*%
D14*
%TO.C,R1*%
X148275000Y-105410000D03*
X150100000Y-105410000D03*
%TD*%
D15*
%TO.C,C15*%
X131445000Y-111760000D03*
X129545000Y-111760000D03*
%TD*%
D10*
%TO.C,C10*%
X125730000Y-105735000D03*
X125730000Y-103835000D03*
%TD*%
D16*
%TO.C,J1*%
X127762000Y-116840000D03*
D17*
X130302000Y-116840000D03*
X132842000Y-116840000D03*
X135382000Y-116840000D03*
X137922000Y-116840000D03*
X140462000Y-116840000D03*
X143002000Y-116840000D03*
X145542000Y-116840000D03*
X148082000Y-116840000D03*
X150622000Y-116840000D03*
X153162000Y-116840000D03*
X155702000Y-116840000D03*
X158242000Y-116840000D03*
X160782000Y-116840000D03*
X163322000Y-116840000D03*
%TD*%
D18*
%TO.C,C17*%
X138176000Y-111760000D03*
X140076000Y-111760000D03*
%TD*%
D11*
%TO.C,C7*%
X153035000Y-105460000D03*
X153035000Y-107360000D03*
%TD*%
D10*
%TO.C,C12*%
X143510000Y-101600000D03*
X143510000Y-99700000D03*
%TD*%
%TO.C,C11*%
X140970000Y-101600000D03*
X140970000Y-99700000D03*
%TD*%
D19*
%TO.C,U1*%
X137912500Y-107035000D03*
X137912500Y-106385000D03*
X137912500Y-105735000D03*
X137912500Y-105085000D03*
X137912500Y-104435000D03*
X137912500Y-103785000D03*
X137912500Y-103135000D03*
X137912500Y-102485000D03*
X137912500Y-101835000D03*
X137912500Y-101185000D03*
X132187500Y-101185000D03*
X132187500Y-101835000D03*
X132187500Y-102485000D03*
X132187500Y-103135000D03*
X132187500Y-103785000D03*
X132187500Y-104435000D03*
X132187500Y-105085000D03*
X132187500Y-105735000D03*
X132187500Y-106385000D03*
X132187500Y-107035000D03*
%TD*%
D15*
%TO.C,C14*%
X131445000Y-109220000D03*
X129545000Y-109220000D03*
%TD*%
D14*
%TO.C,R2*%
X148275000Y-102870000D03*
X150100000Y-102870000D03*
%TD*%
D15*
%TO.C,C18*%
X135890000Y-109220000D03*
X133990000Y-109220000D03*
%TD*%
D18*
%TO.C,C16*%
X138176000Y-109220000D03*
X140076000Y-109220000D03*
%TD*%
D10*
%TO.C,C9*%
X128270000Y-105735000D03*
X128270000Y-103835000D03*
%TD*%
D16*
%TO.C,J2*%
X127762000Y-91440000D03*
D17*
X130302000Y-91440000D03*
X132842000Y-91440000D03*
X135382000Y-91440000D03*
X137922000Y-91440000D03*
X140462000Y-91440000D03*
X143002000Y-91440000D03*
X145542000Y-91440000D03*
X148082000Y-91440000D03*
X150622000Y-91440000D03*
X153162000Y-91440000D03*
X155702000Y-91440000D03*
X158242000Y-91440000D03*
X160782000Y-91440000D03*
X163322000Y-91440000D03*
%TD*%
M02*
