M48
; DRILL file {KiCad 7.0.9} date Sun 17 Dec 2023 12:43:26 PM PST
; FORMAT={-:-/ absolute / inch / decimal}
; #@! TF.CreationDate,2023-12-17T12:43:26-08:00
; #@! TF.GenerationSoftware,Kicad,Pcbnew,7.0.9
; #@! TF.FileFunction,Plated,1,2,PTH
FMAT,2
INCH
; #@! TA.AperFunction,Plated,PTH,ViaDrill
T1C0.0157
; #@! TA.AperFunction,Plated,PTH,ComponentDrill
T2C0.0394
%
G90
G05
T1
X4.88Y-4.09
X4.89Y-4.44
X4.9Y-4.26
X5.1Y-4.23
X5.31Y-3.87
X5.31Y-3.99
X5.31Y-4.08
X5.6Y-3.86
X5.6Y-4.44
X5.63Y-4.24
X5.8Y-4.22
X5.92Y-4.45
X6.1Y-3.98
X6.1Y-4.3
X6.63Y-3.92
T2
X5.03Y-3.6
X5.03Y-4.6
X5.13Y-3.6
X5.13Y-4.6
X5.23Y-3.6
X5.23Y-4.6
X5.33Y-3.6
X5.33Y-4.6
X5.43Y-3.6
X5.43Y-4.6
X5.53Y-3.6
X5.53Y-4.6
X5.63Y-3.6
X5.63Y-4.6
X5.73Y-3.6
X5.73Y-4.6
X5.83Y-3.6
X5.83Y-4.6
X5.93Y-3.6
X5.93Y-4.6
X6.03Y-3.6
X6.03Y-4.6
X6.13Y-3.6
X6.13Y-4.6
X6.23Y-3.6
X6.23Y-4.6
X6.33Y-3.6
X6.33Y-4.6
X6.43Y-3.6
X6.43Y-4.6
T0
M30
