%TF.GenerationSoftware,KiCad,Pcbnew,7.0.9*%
%TF.CreationDate,2023-12-17T12:43:31-08:00*%
%TF.ProjectId,bt_aux,62745f61-7578-42e6-9b69-6361645f7063,rev?*%
%TF.SameCoordinates,Original*%
%TF.FileFunction,Copper,L2,Bot*%
%TF.FilePolarity,Positive*%
%FSLAX46Y46*%
G04 Gerber Fmt 4.6, Leading zero omitted, Abs format (unit mm)*
G04 Created by KiCad (PCBNEW 7.0.9) date 2023-12-17 12:43:31*
%MOMM*%
%LPD*%
G01*
G04 APERTURE LIST*
%TA.AperFunction,ComponentPad*%
%ADD10R,1.700000X1.700000*%
%TD*%
%TA.AperFunction,ComponentPad*%
%ADD11O,1.700000X1.700000*%
%TD*%
%TA.AperFunction,ViaPad*%
%ADD12C,0.800000*%
%TD*%
G04 APERTURE END LIST*
D10*
%TO.P,J1,1,Pin_1*%
%TO.N,unconnected-(J1-Pin_1-Pad1)*%
X127762000Y-116840000D03*
D11*
%TO.P,J1,2,Pin_2*%
%TO.N,unconnected-(J1-Pin_2-Pad2)*%
X130302000Y-116840000D03*
%TO.P,J1,3,Pin_3*%
%TO.N,unconnected-(J1-Pin_3-Pad3)*%
X132842000Y-116840000D03*
%TO.P,J1,4,Pin_4*%
%TO.N,unconnected-(J1-Pin_4-Pad4)*%
X135382000Y-116840000D03*
%TO.P,J1,5,Pin_5*%
%TO.N,unconnected-(J1-Pin_5-Pad5)*%
X137922000Y-116840000D03*
%TO.P,J1,6,Pin_6*%
%TO.N,unconnected-(J1-Pin_6-Pad6)*%
X140462000Y-116840000D03*
%TO.P,J1,7,Pin_7*%
%TO.N,unconnected-(J1-Pin_7-Pad7)*%
X143002000Y-116840000D03*
%TO.P,J1,8,Pin_8*%
%TO.N,unconnected-(J1-Pin_8-Pad8)*%
X145542000Y-116840000D03*
%TO.P,J1,9,Pin_9*%
%TO.N,unconnected-(J1-Pin_9-Pad9)*%
X148082000Y-116840000D03*
%TO.P,J1,10,Pin_10*%
%TO.N,unconnected-(J1-Pin_10-Pad10)*%
X150622000Y-116840000D03*
%TO.P,J1,11,Pin_11*%
%TO.N,unconnected-(J1-Pin_11-Pad11)*%
X153162000Y-116840000D03*
%TO.P,J1,12,Pin_12*%
%TO.N,unconnected-(J1-Pin_12-Pad12)*%
X155702000Y-116840000D03*
%TO.P,J1,13,Pin_13*%
%TO.N,unconnected-(J1-Pin_13-Pad13)*%
X158242000Y-116840000D03*
%TO.P,J1,14,Pin_14*%
%TO.N,GND*%
X160782000Y-116840000D03*
%TO.P,J1,15,Pin_15*%
%TO.N,unconnected-(J1-Pin_15-Pad15)*%
X163322000Y-116840000D03*
%TD*%
D10*
%TO.P,J2,1,Pin_1*%
%TO.N,/lrck*%
X127762000Y-91440000D03*
D11*
%TO.P,J2,2,Pin_2*%
%TO.N,/din*%
X130302000Y-91440000D03*
%TO.P,J2,3,Pin_3*%
%TO.N,unconnected-(J2-Pin_3-Pad3)*%
X132842000Y-91440000D03*
%TO.P,J2,4,Pin_4*%
%TO.N,unconnected-(J2-Pin_4-Pad4)*%
X135382000Y-91440000D03*
%TO.P,J2,5,Pin_5*%
%TO.N,/bck*%
X137922000Y-91440000D03*
%TO.P,J2,6,Pin_6*%
%TO.N,/sck*%
X140462000Y-91440000D03*
%TO.P,J2,7,Pin_7*%
%TO.N,unconnected-(J2-Pin_7-Pad7)*%
X143002000Y-91440000D03*
%TO.P,J2,8,Pin_8*%
%TO.N,unconnected-(J2-Pin_8-Pad8)*%
X145542000Y-91440000D03*
%TO.P,J2,9,Pin_9*%
%TO.N,unconnected-(J2-Pin_9-Pad9)*%
X148082000Y-91440000D03*
%TO.P,J2,10,Pin_10*%
%TO.N,unconnected-(J2-Pin_10-Pad10)*%
X150622000Y-91440000D03*
%TO.P,J2,11,Pin_11*%
%TO.N,unconnected-(J2-Pin_11-Pad11)*%
X153162000Y-91440000D03*
%TO.P,J2,12,Pin_12*%
%TO.N,unconnected-(J2-Pin_12-Pad12)*%
X155702000Y-91440000D03*
%TO.P,J2,13,Pin_13*%
%TO.N,unconnected-(J2-Pin_13-Pad13)*%
X158242000Y-91440000D03*
%TO.P,J2,14,Pin_14*%
%TO.N,GND*%
X160782000Y-91440000D03*
%TO.P,J2,15,Pin_15*%
%TO.N,+3.3V*%
X163322000Y-91440000D03*
%TD*%
D12*
%TO.N,GND*%
X142240000Y-112776000D03*
X124206000Y-112776000D03*
X129540000Y-107442000D03*
X142240000Y-98044000D03*
X147320000Y-107188000D03*
X168402000Y-99568000D03*
X154940000Y-109220000D03*
X150368000Y-113030000D03*
X123952000Y-103886000D03*
X134874000Y-98298000D03*
X124460000Y-108204000D03*
X143002000Y-107696000D03*
X134874000Y-103632000D03*
X154940000Y-101092000D03*
X134874000Y-101346000D03*
%TD*%
%TA.AperFunction,Conductor*%
%TO.N,GND*%
G36*
X170433953Y-89663175D02*
G01*
X170439584Y-89663507D01*
X170487936Y-89666357D01*
X170503729Y-89667487D01*
X170521497Y-89668886D01*
X170553204Y-89671383D01*
X170669261Y-89685118D01*
X170674037Y-89685873D01*
X170786279Y-89708199D01*
X170791000Y-89709333D01*
X170901147Y-89740398D01*
X170905776Y-89741901D01*
X171013135Y-89781508D01*
X171017616Y-89783364D01*
X171054429Y-89800335D01*
X171121544Y-89831276D01*
X171125883Y-89833487D01*
X171225717Y-89889398D01*
X171229869Y-89891942D01*
X171324995Y-89955504D01*
X171328935Y-89958366D01*
X171418789Y-90029201D01*
X171422492Y-90032363D01*
X171501001Y-90104936D01*
X171506519Y-90110036D01*
X171509959Y-90113476D01*
X171540214Y-90146206D01*
X171587635Y-90197506D01*
X171590798Y-90201210D01*
X171661637Y-90291069D01*
X171664492Y-90294998D01*
X171699682Y-90347664D01*
X171728063Y-90390139D01*
X171730602Y-90394281D01*
X171780017Y-90482517D01*
X171786512Y-90494115D01*
X171788723Y-90498454D01*
X171836632Y-90602376D01*
X171838496Y-90606876D01*
X171878097Y-90714221D01*
X171879601Y-90718852D01*
X171910666Y-90828999D01*
X171911803Y-90833735D01*
X171934121Y-90945938D01*
X171934883Y-90950748D01*
X171948619Y-91066796D01*
X171952518Y-91116354D01*
X171953637Y-91131995D01*
X171956825Y-91186047D01*
X171957500Y-91220417D01*
X171957500Y-117059582D01*
X171956825Y-117093953D01*
X171953637Y-117148005D01*
X171952518Y-117163644D01*
X171948619Y-117213204D01*
X171934883Y-117329251D01*
X171934121Y-117334061D01*
X171911799Y-117446282D01*
X171910662Y-117451018D01*
X171879604Y-117561139D01*
X171878100Y-117565771D01*
X171838496Y-117673123D01*
X171836632Y-117677622D01*
X171788728Y-117781534D01*
X171786517Y-117785874D01*
X171730604Y-117885712D01*
X171728060Y-117889864D01*
X171664495Y-117984995D01*
X171661633Y-117988935D01*
X171590798Y-118078790D01*
X171587635Y-118082493D01*
X171509957Y-118166525D01*
X171506513Y-118169968D01*
X171422493Y-118247635D01*
X171418790Y-118250798D01*
X171328930Y-118321637D01*
X171324990Y-118324500D01*
X171229858Y-118388064D01*
X171225705Y-118390609D01*
X171125873Y-118446517D01*
X171121534Y-118448728D01*
X171017622Y-118496632D01*
X171013123Y-118498496D01*
X170905771Y-118538100D01*
X170901139Y-118539604D01*
X170791018Y-118570662D01*
X170786282Y-118571799D01*
X170674061Y-118594121D01*
X170669251Y-118594883D01*
X170578079Y-118605674D01*
X170553203Y-118608619D01*
X170549571Y-118608904D01*
X170503644Y-118612518D01*
X170488005Y-118613637D01*
X170433953Y-118616825D01*
X170399582Y-118617500D01*
X121700418Y-118617500D01*
X121666047Y-118616825D01*
X121611995Y-118613637D01*
X121596354Y-118612518D01*
X121551052Y-118608953D01*
X121546797Y-118608619D01*
X121515132Y-118604871D01*
X121430748Y-118594883D01*
X121425938Y-118594121D01*
X121313717Y-118571799D01*
X121308981Y-118570662D01*
X121198860Y-118539604D01*
X121194228Y-118538100D01*
X121086876Y-118498496D01*
X121082377Y-118496632D01*
X120978465Y-118448728D01*
X120974126Y-118446517D01*
X120874294Y-118390609D01*
X120870141Y-118388064D01*
X120840111Y-118367999D01*
X120774998Y-118324492D01*
X120771069Y-118321637D01*
X120681209Y-118250798D01*
X120677506Y-118247635D01*
X120593474Y-118169957D01*
X120590031Y-118166513D01*
X120512364Y-118082493D01*
X120509201Y-118078790D01*
X120438362Y-117988930D01*
X120435503Y-117984995D01*
X120371934Y-117889856D01*
X120369390Y-117885705D01*
X120313482Y-117785873D01*
X120311271Y-117781534D01*
X120291142Y-117737870D01*
X126411500Y-117737870D01*
X126411501Y-117737876D01*
X126417908Y-117797483D01*
X126468202Y-117932328D01*
X126468206Y-117932335D01*
X126554452Y-118047544D01*
X126554455Y-118047547D01*
X126669664Y-118133793D01*
X126669671Y-118133797D01*
X126804517Y-118184091D01*
X126804516Y-118184091D01*
X126811444Y-118184835D01*
X126864127Y-118190500D01*
X128659872Y-118190499D01*
X128719483Y-118184091D01*
X128854331Y-118133796D01*
X128969546Y-118047546D01*
X129055796Y-117932331D01*
X129104810Y-117800916D01*
X129146681Y-117744984D01*
X129212145Y-117720566D01*
X129280418Y-117735417D01*
X129308673Y-117756569D01*
X129430599Y-117878495D01*
X129527384Y-117946265D01*
X129624165Y-118014032D01*
X129624167Y-118014033D01*
X129624170Y-118014035D01*
X129838337Y-118113903D01*
X130066592Y-118175063D01*
X130243034Y-118190500D01*
X130301999Y-118195659D01*
X130302000Y-118195659D01*
X130302001Y-118195659D01*
X130360966Y-118190500D01*
X130537408Y-118175063D01*
X130765663Y-118113903D01*
X130979830Y-118014035D01*
X131173401Y-117878495D01*
X131340495Y-117711401D01*
X131470425Y-117525842D01*
X131525002Y-117482217D01*
X131594500Y-117475023D01*
X131656855Y-117506546D01*
X131673575Y-117525842D01*
X131803500Y-117711395D01*
X131803505Y-117711401D01*
X131970599Y-117878495D01*
X132067384Y-117946265D01*
X132164165Y-118014032D01*
X132164167Y-118014033D01*
X132164170Y-118014035D01*
X132378337Y-118113903D01*
X132606592Y-118175063D01*
X132783034Y-118190500D01*
X132841999Y-118195659D01*
X132842000Y-118195659D01*
X132842001Y-118195659D01*
X132900966Y-118190500D01*
X133077408Y-118175063D01*
X133305663Y-118113903D01*
X133519830Y-118014035D01*
X133713401Y-117878495D01*
X133880495Y-117711401D01*
X134010425Y-117525842D01*
X134065002Y-117482217D01*
X134134500Y-117475023D01*
X134196855Y-117506546D01*
X134213575Y-117525842D01*
X134343500Y-117711395D01*
X134343505Y-117711401D01*
X134510599Y-117878495D01*
X134607384Y-117946265D01*
X134704165Y-118014032D01*
X134704167Y-118014033D01*
X134704170Y-118014035D01*
X134918337Y-118113903D01*
X135146592Y-118175063D01*
X135323034Y-118190500D01*
X135381999Y-118195659D01*
X135382000Y-118195659D01*
X135382001Y-118195659D01*
X135440966Y-118190500D01*
X135617408Y-118175063D01*
X135845663Y-118113903D01*
X136059830Y-118014035D01*
X136253401Y-117878495D01*
X136420495Y-117711401D01*
X136550425Y-117525842D01*
X136605002Y-117482217D01*
X136674500Y-117475023D01*
X136736855Y-117506546D01*
X136753575Y-117525842D01*
X136883500Y-117711395D01*
X136883505Y-117711401D01*
X137050599Y-117878495D01*
X137147384Y-117946265D01*
X137244165Y-118014032D01*
X137244167Y-118014033D01*
X137244170Y-118014035D01*
X137458337Y-118113903D01*
X137686592Y-118175063D01*
X137863034Y-118190500D01*
X137921999Y-118195659D01*
X137922000Y-118195659D01*
X137922001Y-118195659D01*
X137980966Y-118190500D01*
X138157408Y-118175063D01*
X138385663Y-118113903D01*
X138599830Y-118014035D01*
X138793401Y-117878495D01*
X138960495Y-117711401D01*
X139090425Y-117525842D01*
X139145002Y-117482217D01*
X139214500Y-117475023D01*
X139276855Y-117506546D01*
X139293575Y-117525842D01*
X139423500Y-117711395D01*
X139423505Y-117711401D01*
X139590599Y-117878495D01*
X139687384Y-117946265D01*
X139784165Y-118014032D01*
X139784167Y-118014033D01*
X139784170Y-118014035D01*
X139998337Y-118113903D01*
X140226592Y-118175063D01*
X140403034Y-118190500D01*
X140461999Y-118195659D01*
X140462000Y-118195659D01*
X140462001Y-118195659D01*
X140520966Y-118190500D01*
X140697408Y-118175063D01*
X140925663Y-118113903D01*
X141139830Y-118014035D01*
X141333401Y-117878495D01*
X141500495Y-117711401D01*
X141630425Y-117525842D01*
X141685002Y-117482217D01*
X141754500Y-117475023D01*
X141816855Y-117506546D01*
X141833575Y-117525842D01*
X141963500Y-117711395D01*
X141963505Y-117711401D01*
X142130599Y-117878495D01*
X142227384Y-117946265D01*
X142324165Y-118014032D01*
X142324167Y-118014033D01*
X142324170Y-118014035D01*
X142538337Y-118113903D01*
X142766592Y-118175063D01*
X142943034Y-118190500D01*
X143001999Y-118195659D01*
X143002000Y-118195659D01*
X143002001Y-118195659D01*
X143060966Y-118190500D01*
X143237408Y-118175063D01*
X143465663Y-118113903D01*
X143679830Y-118014035D01*
X143873401Y-117878495D01*
X144040495Y-117711401D01*
X144170425Y-117525842D01*
X144225002Y-117482217D01*
X144294500Y-117475023D01*
X144356855Y-117506546D01*
X144373575Y-117525842D01*
X144503500Y-117711395D01*
X144503505Y-117711401D01*
X144670599Y-117878495D01*
X144767384Y-117946265D01*
X144864165Y-118014032D01*
X144864167Y-118014033D01*
X144864170Y-118014035D01*
X145078337Y-118113903D01*
X145306592Y-118175063D01*
X145483034Y-118190500D01*
X145541999Y-118195659D01*
X145542000Y-118195659D01*
X145542001Y-118195659D01*
X145600966Y-118190500D01*
X145777408Y-118175063D01*
X146005663Y-118113903D01*
X146219830Y-118014035D01*
X146413401Y-117878495D01*
X146580495Y-117711401D01*
X146710425Y-117525842D01*
X146765002Y-117482217D01*
X146834500Y-117475023D01*
X146896855Y-117506546D01*
X146913575Y-117525842D01*
X147043500Y-117711395D01*
X147043505Y-117711401D01*
X147210599Y-117878495D01*
X147307384Y-117946265D01*
X147404165Y-118014032D01*
X147404167Y-118014033D01*
X147404170Y-118014035D01*
X147618337Y-118113903D01*
X147846592Y-118175063D01*
X148023034Y-118190500D01*
X148081999Y-118195659D01*
X148082000Y-118195659D01*
X148082001Y-118195659D01*
X148140966Y-118190500D01*
X148317408Y-118175063D01*
X148545663Y-118113903D01*
X148759830Y-118014035D01*
X148953401Y-117878495D01*
X149120495Y-117711401D01*
X149250425Y-117525842D01*
X149305002Y-117482217D01*
X149374500Y-117475023D01*
X149436855Y-117506546D01*
X149453575Y-117525842D01*
X149583500Y-117711395D01*
X149583505Y-117711401D01*
X149750599Y-117878495D01*
X149847384Y-117946265D01*
X149944165Y-118014032D01*
X149944167Y-118014033D01*
X149944170Y-118014035D01*
X150158337Y-118113903D01*
X150386592Y-118175063D01*
X150563034Y-118190500D01*
X150621999Y-118195659D01*
X150622000Y-118195659D01*
X150622001Y-118195659D01*
X150680966Y-118190500D01*
X150857408Y-118175063D01*
X151085663Y-118113903D01*
X151299830Y-118014035D01*
X151493401Y-117878495D01*
X151660495Y-117711401D01*
X151790425Y-117525842D01*
X151845002Y-117482217D01*
X151914500Y-117475023D01*
X151976855Y-117506546D01*
X151993575Y-117525842D01*
X152123500Y-117711395D01*
X152123505Y-117711401D01*
X152290599Y-117878495D01*
X152387384Y-117946265D01*
X152484165Y-118014032D01*
X152484167Y-118014033D01*
X152484170Y-118014035D01*
X152698337Y-118113903D01*
X152926592Y-118175063D01*
X153103034Y-118190500D01*
X153161999Y-118195659D01*
X153162000Y-118195659D01*
X153162001Y-118195659D01*
X153220966Y-118190500D01*
X153397408Y-118175063D01*
X153625663Y-118113903D01*
X153839830Y-118014035D01*
X154033401Y-117878495D01*
X154200495Y-117711401D01*
X154330425Y-117525842D01*
X154385002Y-117482217D01*
X154454500Y-117475023D01*
X154516855Y-117506546D01*
X154533575Y-117525842D01*
X154663500Y-117711395D01*
X154663505Y-117711401D01*
X154830599Y-117878495D01*
X154927384Y-117946265D01*
X155024165Y-118014032D01*
X155024167Y-118014033D01*
X155024170Y-118014035D01*
X155238337Y-118113903D01*
X155466592Y-118175063D01*
X155643034Y-118190500D01*
X155701999Y-118195659D01*
X155702000Y-118195659D01*
X155702001Y-118195659D01*
X155760966Y-118190500D01*
X155937408Y-118175063D01*
X156165663Y-118113903D01*
X156379830Y-118014035D01*
X156573401Y-117878495D01*
X156740495Y-117711401D01*
X156870425Y-117525842D01*
X156925002Y-117482217D01*
X156994500Y-117475023D01*
X157056855Y-117506546D01*
X157073575Y-117525842D01*
X157203500Y-117711395D01*
X157203505Y-117711401D01*
X157370599Y-117878495D01*
X157467384Y-117946265D01*
X157564165Y-118014032D01*
X157564167Y-118014033D01*
X157564170Y-118014035D01*
X157778337Y-118113903D01*
X158006592Y-118175063D01*
X158183034Y-118190500D01*
X158241999Y-118195659D01*
X158242000Y-118195659D01*
X158242001Y-118195659D01*
X158300966Y-118190500D01*
X158477408Y-118175063D01*
X158705663Y-118113903D01*
X158919830Y-118014035D01*
X159113401Y-117878495D01*
X159280495Y-117711401D01*
X159410730Y-117525405D01*
X159465307Y-117481781D01*
X159534805Y-117474587D01*
X159597160Y-117506110D01*
X159613879Y-117525405D01*
X159743890Y-117711078D01*
X159910917Y-117878105D01*
X160104421Y-118013600D01*
X160318507Y-118113429D01*
X160318516Y-118113433D01*
X160532000Y-118170634D01*
X160532000Y-117275501D01*
X160639685Y-117324680D01*
X160746237Y-117340000D01*
X160817763Y-117340000D01*
X160924315Y-117324680D01*
X161032000Y-117275501D01*
X161032000Y-118170633D01*
X161245483Y-118113433D01*
X161245492Y-118113429D01*
X161459578Y-118013600D01*
X161653082Y-117878105D01*
X161820105Y-117711082D01*
X161950119Y-117525405D01*
X162004696Y-117481781D01*
X162074195Y-117474588D01*
X162136549Y-117506110D01*
X162153269Y-117525405D01*
X162283505Y-117711401D01*
X162450599Y-117878495D01*
X162547384Y-117946265D01*
X162644165Y-118014032D01*
X162644167Y-118014033D01*
X162644170Y-118014035D01*
X162858337Y-118113903D01*
X163086592Y-118175063D01*
X163263034Y-118190500D01*
X163321999Y-118195659D01*
X163322000Y-118195659D01*
X163322001Y-118195659D01*
X163380966Y-118190500D01*
X163557408Y-118175063D01*
X163785663Y-118113903D01*
X163999830Y-118014035D01*
X164193401Y-117878495D01*
X164360495Y-117711401D01*
X164496035Y-117517830D01*
X164595903Y-117303663D01*
X164657063Y-117075408D01*
X164677659Y-116840000D01*
X164657063Y-116604592D01*
X164595903Y-116376337D01*
X164496035Y-116162171D01*
X164490731Y-116154595D01*
X164360494Y-115968597D01*
X164193402Y-115801506D01*
X164193395Y-115801501D01*
X163999834Y-115665967D01*
X163999830Y-115665965D01*
X163999828Y-115665964D01*
X163785663Y-115566097D01*
X163785659Y-115566096D01*
X163785655Y-115566094D01*
X163557413Y-115504938D01*
X163557403Y-115504936D01*
X163322001Y-115484341D01*
X163321999Y-115484341D01*
X163086596Y-115504936D01*
X163086586Y-115504938D01*
X162858344Y-115566094D01*
X162858335Y-115566098D01*
X162644171Y-115665964D01*
X162644169Y-115665965D01*
X162450597Y-115801505D01*
X162283508Y-115968594D01*
X162153269Y-116154595D01*
X162098692Y-116198219D01*
X162029193Y-116205412D01*
X161966839Y-116173890D01*
X161950119Y-116154594D01*
X161820113Y-115968926D01*
X161820108Y-115968920D01*
X161653082Y-115801894D01*
X161459578Y-115666399D01*
X161245492Y-115566570D01*
X161245486Y-115566567D01*
X161032000Y-115509364D01*
X161032000Y-116404498D01*
X160924315Y-116355320D01*
X160817763Y-116340000D01*
X160746237Y-116340000D01*
X160639685Y-116355320D01*
X160532000Y-116404498D01*
X160532000Y-115509364D01*
X160531999Y-115509364D01*
X160318513Y-115566567D01*
X160318507Y-115566570D01*
X160104422Y-115666399D01*
X160104420Y-115666400D01*
X159910926Y-115801886D01*
X159910920Y-115801891D01*
X159743891Y-115968920D01*
X159743890Y-115968922D01*
X159613880Y-116154595D01*
X159559303Y-116198219D01*
X159489804Y-116205412D01*
X159427450Y-116173890D01*
X159410730Y-116154594D01*
X159280494Y-115968597D01*
X159113402Y-115801506D01*
X159113395Y-115801501D01*
X158919834Y-115665967D01*
X158919830Y-115665965D01*
X158919828Y-115665964D01*
X158705663Y-115566097D01*
X158705659Y-115566096D01*
X158705655Y-115566094D01*
X158477413Y-115504938D01*
X158477403Y-115504936D01*
X158242001Y-115484341D01*
X158241999Y-115484341D01*
X158006596Y-115504936D01*
X158006586Y-115504938D01*
X157778344Y-115566094D01*
X157778335Y-115566098D01*
X157564171Y-115665964D01*
X157564169Y-115665965D01*
X157370597Y-115801505D01*
X157203505Y-115968597D01*
X157073575Y-116154158D01*
X157018998Y-116197783D01*
X156949500Y-116204977D01*
X156887145Y-116173454D01*
X156870425Y-116154158D01*
X156740494Y-115968597D01*
X156573402Y-115801506D01*
X156573395Y-115801501D01*
X156379834Y-115665967D01*
X156379830Y-115665965D01*
X156379828Y-115665964D01*
X156165663Y-115566097D01*
X156165659Y-115566096D01*
X156165655Y-115566094D01*
X155937413Y-115504938D01*
X155937403Y-115504936D01*
X155702001Y-115484341D01*
X155701999Y-115484341D01*
X155466596Y-115504936D01*
X155466586Y-115504938D01*
X155238344Y-115566094D01*
X155238335Y-115566098D01*
X155024171Y-115665964D01*
X155024169Y-115665965D01*
X154830597Y-115801505D01*
X154663505Y-115968597D01*
X154533575Y-116154158D01*
X154478998Y-116197783D01*
X154409500Y-116204977D01*
X154347145Y-116173454D01*
X154330425Y-116154158D01*
X154200494Y-115968597D01*
X154033402Y-115801506D01*
X154033395Y-115801501D01*
X153839834Y-115665967D01*
X153839830Y-115665965D01*
X153839828Y-115665964D01*
X153625663Y-115566097D01*
X153625659Y-115566096D01*
X153625655Y-115566094D01*
X153397413Y-115504938D01*
X153397403Y-115504936D01*
X153162001Y-115484341D01*
X153161999Y-115484341D01*
X152926596Y-115504936D01*
X152926586Y-115504938D01*
X152698344Y-115566094D01*
X152698335Y-115566098D01*
X152484171Y-115665964D01*
X152484169Y-115665965D01*
X152290597Y-115801505D01*
X152123505Y-115968597D01*
X151993575Y-116154158D01*
X151938998Y-116197783D01*
X151869500Y-116204977D01*
X151807145Y-116173454D01*
X151790425Y-116154158D01*
X151660494Y-115968597D01*
X151493402Y-115801506D01*
X151493395Y-115801501D01*
X151299834Y-115665967D01*
X151299830Y-115665965D01*
X151299828Y-115665964D01*
X151085663Y-115566097D01*
X151085659Y-115566096D01*
X151085655Y-115566094D01*
X150857413Y-115504938D01*
X150857403Y-115504936D01*
X150622001Y-115484341D01*
X150621999Y-115484341D01*
X150386596Y-115504936D01*
X150386586Y-115504938D01*
X150158344Y-115566094D01*
X150158335Y-115566098D01*
X149944171Y-115665964D01*
X149944169Y-115665965D01*
X149750597Y-115801505D01*
X149583505Y-115968597D01*
X149453575Y-116154158D01*
X149398998Y-116197783D01*
X149329500Y-116204977D01*
X149267145Y-116173454D01*
X149250425Y-116154158D01*
X149120494Y-115968597D01*
X148953402Y-115801506D01*
X148953395Y-115801501D01*
X148759834Y-115665967D01*
X148759830Y-115665965D01*
X148759828Y-115665964D01*
X148545663Y-115566097D01*
X148545659Y-115566096D01*
X148545655Y-115566094D01*
X148317413Y-115504938D01*
X148317403Y-115504936D01*
X148082001Y-115484341D01*
X148081999Y-115484341D01*
X147846596Y-115504936D01*
X147846586Y-115504938D01*
X147618344Y-115566094D01*
X147618335Y-115566098D01*
X147404171Y-115665964D01*
X147404169Y-115665965D01*
X147210597Y-115801505D01*
X147043505Y-115968597D01*
X146913575Y-116154158D01*
X146858998Y-116197783D01*
X146789500Y-116204977D01*
X146727145Y-116173454D01*
X146710425Y-116154158D01*
X146580494Y-115968597D01*
X146413402Y-115801506D01*
X146413395Y-115801501D01*
X146219834Y-115665967D01*
X146219830Y-115665965D01*
X146219828Y-115665964D01*
X146005663Y-115566097D01*
X146005659Y-115566096D01*
X146005655Y-115566094D01*
X145777413Y-115504938D01*
X145777403Y-115504936D01*
X145542001Y-115484341D01*
X145541999Y-115484341D01*
X145306596Y-115504936D01*
X145306586Y-115504938D01*
X145078344Y-115566094D01*
X145078335Y-115566098D01*
X144864171Y-115665964D01*
X144864169Y-115665965D01*
X144670597Y-115801505D01*
X144503505Y-115968597D01*
X144373575Y-116154158D01*
X144318998Y-116197783D01*
X144249500Y-116204977D01*
X144187145Y-116173454D01*
X144170425Y-116154158D01*
X144040494Y-115968597D01*
X143873402Y-115801506D01*
X143873395Y-115801501D01*
X143679834Y-115665967D01*
X143679830Y-115665965D01*
X143679828Y-115665964D01*
X143465663Y-115566097D01*
X143465659Y-115566096D01*
X143465655Y-115566094D01*
X143237413Y-115504938D01*
X143237403Y-115504936D01*
X143002001Y-115484341D01*
X143001999Y-115484341D01*
X142766596Y-115504936D01*
X142766586Y-115504938D01*
X142538344Y-115566094D01*
X142538335Y-115566098D01*
X142324171Y-115665964D01*
X142324169Y-115665965D01*
X142130597Y-115801505D01*
X141963505Y-115968597D01*
X141833575Y-116154158D01*
X141778998Y-116197783D01*
X141709500Y-116204977D01*
X141647145Y-116173454D01*
X141630425Y-116154158D01*
X141500494Y-115968597D01*
X141333402Y-115801506D01*
X141333395Y-115801501D01*
X141139834Y-115665967D01*
X141139830Y-115665965D01*
X141139828Y-115665964D01*
X140925663Y-115566097D01*
X140925659Y-115566096D01*
X140925655Y-115566094D01*
X140697413Y-115504938D01*
X140697403Y-115504936D01*
X140462001Y-115484341D01*
X140461999Y-115484341D01*
X140226596Y-115504936D01*
X140226586Y-115504938D01*
X139998344Y-115566094D01*
X139998335Y-115566098D01*
X139784171Y-115665964D01*
X139784169Y-115665965D01*
X139590597Y-115801505D01*
X139423505Y-115968597D01*
X139293575Y-116154158D01*
X139238998Y-116197783D01*
X139169500Y-116204977D01*
X139107145Y-116173454D01*
X139090425Y-116154158D01*
X138960494Y-115968597D01*
X138793402Y-115801506D01*
X138793395Y-115801501D01*
X138599834Y-115665967D01*
X138599830Y-115665965D01*
X138599828Y-115665964D01*
X138385663Y-115566097D01*
X138385659Y-115566096D01*
X138385655Y-115566094D01*
X138157413Y-115504938D01*
X138157403Y-115504936D01*
X137922001Y-115484341D01*
X137921999Y-115484341D01*
X137686596Y-115504936D01*
X137686586Y-115504938D01*
X137458344Y-115566094D01*
X137458335Y-115566098D01*
X137244171Y-115665964D01*
X137244169Y-115665965D01*
X137050597Y-115801505D01*
X136883505Y-115968597D01*
X136753575Y-116154158D01*
X136698998Y-116197783D01*
X136629500Y-116204977D01*
X136567145Y-116173454D01*
X136550425Y-116154158D01*
X136420494Y-115968597D01*
X136253402Y-115801506D01*
X136253395Y-115801501D01*
X136059834Y-115665967D01*
X136059830Y-115665965D01*
X136059828Y-115665964D01*
X135845663Y-115566097D01*
X135845659Y-115566096D01*
X135845655Y-115566094D01*
X135617413Y-115504938D01*
X135617403Y-115504936D01*
X135382001Y-115484341D01*
X135381999Y-115484341D01*
X135146596Y-115504936D01*
X135146586Y-115504938D01*
X134918344Y-115566094D01*
X134918335Y-115566098D01*
X134704171Y-115665964D01*
X134704169Y-115665965D01*
X134510597Y-115801505D01*
X134343505Y-115968597D01*
X134213575Y-116154158D01*
X134158998Y-116197783D01*
X134089500Y-116204977D01*
X134027145Y-116173454D01*
X134010425Y-116154158D01*
X133880494Y-115968597D01*
X133713402Y-115801506D01*
X133713395Y-115801501D01*
X133519834Y-115665967D01*
X133519830Y-115665965D01*
X133519828Y-115665964D01*
X133305663Y-115566097D01*
X133305659Y-115566096D01*
X133305655Y-115566094D01*
X133077413Y-115504938D01*
X133077403Y-115504936D01*
X132842001Y-115484341D01*
X132841999Y-115484341D01*
X132606596Y-115504936D01*
X132606586Y-115504938D01*
X132378344Y-115566094D01*
X132378335Y-115566098D01*
X132164171Y-115665964D01*
X132164169Y-115665965D01*
X131970597Y-115801505D01*
X131803505Y-115968597D01*
X131673575Y-116154158D01*
X131618998Y-116197783D01*
X131549500Y-116204977D01*
X131487145Y-116173454D01*
X131470425Y-116154158D01*
X131340494Y-115968597D01*
X131173402Y-115801506D01*
X131173395Y-115801501D01*
X130979834Y-115665967D01*
X130979830Y-115665965D01*
X130979828Y-115665964D01*
X130765663Y-115566097D01*
X130765659Y-115566096D01*
X130765655Y-115566094D01*
X130537413Y-115504938D01*
X130537403Y-115504936D01*
X130302001Y-115484341D01*
X130301999Y-115484341D01*
X130066596Y-115504936D01*
X130066586Y-115504938D01*
X129838344Y-115566094D01*
X129838335Y-115566098D01*
X129624171Y-115665964D01*
X129624169Y-115665965D01*
X129430600Y-115801503D01*
X129308673Y-115923430D01*
X129247350Y-115956914D01*
X129177658Y-115951930D01*
X129121725Y-115910058D01*
X129104810Y-115879081D01*
X129055797Y-115747671D01*
X129055793Y-115747664D01*
X128969547Y-115632455D01*
X128969544Y-115632452D01*
X128854335Y-115546206D01*
X128854328Y-115546202D01*
X128719482Y-115495908D01*
X128719483Y-115495908D01*
X128659883Y-115489501D01*
X128659881Y-115489500D01*
X128659873Y-115489500D01*
X128659864Y-115489500D01*
X126864129Y-115489500D01*
X126864123Y-115489501D01*
X126804516Y-115495908D01*
X126669671Y-115546202D01*
X126669664Y-115546206D01*
X126554455Y-115632452D01*
X126554452Y-115632455D01*
X126468206Y-115747664D01*
X126468202Y-115747671D01*
X126417908Y-115882517D01*
X126411501Y-115942116D01*
X126411500Y-115942135D01*
X126411500Y-117737870D01*
X120291142Y-117737870D01*
X120263367Y-117677622D01*
X120261507Y-117673135D01*
X120221895Y-117565759D01*
X120220395Y-117561139D01*
X120189337Y-117451018D01*
X120188200Y-117446283D01*
X120188200Y-117446282D01*
X120165877Y-117334057D01*
X120165118Y-117329261D01*
X120151383Y-117213204D01*
X120147481Y-117163644D01*
X120146357Y-117147936D01*
X120143175Y-117093954D01*
X120142500Y-117059582D01*
X120142500Y-103263685D01*
X159837740Y-103263685D01*
X159847755Y-103448406D01*
X159847755Y-103448411D01*
X159897244Y-103626656D01*
X159897247Y-103626662D01*
X159983898Y-103790102D01*
X160046540Y-103863850D01*
X160103663Y-103931100D01*
X160250936Y-104043054D01*
X160418833Y-104120732D01*
X160418834Y-104120732D01*
X160418836Y-104120733D01*
X160473648Y-104132797D01*
X160599503Y-104160500D01*
X160599506Y-104160500D01*
X160738107Y-104160500D01*
X160738113Y-104160500D01*
X160875910Y-104145514D01*
X161051221Y-104086444D01*
X161209736Y-103991070D01*
X161344041Y-103863849D01*
X161447858Y-103710730D01*
X161516331Y-103538875D01*
X161546260Y-103356317D01*
X161541238Y-103263685D01*
X165837740Y-103263685D01*
X165847755Y-103448406D01*
X165847755Y-103448411D01*
X165897244Y-103626656D01*
X165897247Y-103626662D01*
X165983898Y-103790102D01*
X166046540Y-103863850D01*
X166103663Y-103931100D01*
X166250936Y-104043054D01*
X166418833Y-104120732D01*
X166418834Y-104120732D01*
X166418836Y-104120733D01*
X166473648Y-104132797D01*
X166599503Y-104160500D01*
X166599506Y-104160500D01*
X166738107Y-104160500D01*
X166738113Y-104160500D01*
X166875910Y-104145514D01*
X167051221Y-104086444D01*
X167209736Y-103991070D01*
X167344041Y-103863849D01*
X167447858Y-103710730D01*
X167516331Y-103538875D01*
X167546260Y-103356317D01*
X167536245Y-103171593D01*
X167486754Y-102993341D01*
X167400100Y-102829896D01*
X167337460Y-102756151D01*
X167280337Y-102688900D01*
X167201449Y-102628931D01*
X167133064Y-102576946D01*
X166965167Y-102499268D01*
X166965163Y-102499266D01*
X166784497Y-102459500D01*
X166645887Y-102459500D01*
X166645883Y-102459500D01*
X166508088Y-102474486D01*
X166332776Y-102533557D01*
X166332774Y-102533558D01*
X166174262Y-102628931D01*
X166174261Y-102628932D01*
X166039959Y-102756149D01*
X165936138Y-102909276D01*
X165867669Y-103081122D01*
X165837740Y-103263685D01*
X161541238Y-103263685D01*
X161536245Y-103171593D01*
X161486754Y-102993341D01*
X161400100Y-102829896D01*
X161337460Y-102756151D01*
X161280337Y-102688900D01*
X161201449Y-102628931D01*
X161133064Y-102576946D01*
X160965167Y-102499268D01*
X160965163Y-102499266D01*
X160784497Y-102459500D01*
X160645887Y-102459500D01*
X160645883Y-102459500D01*
X160508088Y-102474486D01*
X160332776Y-102533557D01*
X160332774Y-102533558D01*
X160174262Y-102628931D01*
X160174261Y-102628932D01*
X160039959Y-102756149D01*
X159936138Y-102909276D01*
X159867669Y-103081122D01*
X159837740Y-103263685D01*
X120142500Y-103263685D01*
X120142500Y-92337870D01*
X126411500Y-92337870D01*
X126411501Y-92337876D01*
X126417908Y-92397483D01*
X126468202Y-92532328D01*
X126468206Y-92532335D01*
X126554452Y-92647544D01*
X126554455Y-92647547D01*
X126669664Y-92733793D01*
X126669671Y-92733797D01*
X126804517Y-92784091D01*
X126804516Y-92784091D01*
X126811444Y-92784835D01*
X126864127Y-92790500D01*
X128659872Y-92790499D01*
X128719483Y-92784091D01*
X128854331Y-92733796D01*
X128969546Y-92647546D01*
X129055796Y-92532331D01*
X129104810Y-92400916D01*
X129146681Y-92344984D01*
X129212145Y-92320566D01*
X129280418Y-92335417D01*
X129308673Y-92356569D01*
X129430599Y-92478495D01*
X129527384Y-92546265D01*
X129624165Y-92614032D01*
X129624167Y-92614033D01*
X129624170Y-92614035D01*
X129838337Y-92713903D01*
X130066592Y-92775063D01*
X130243034Y-92790500D01*
X130301999Y-92795659D01*
X130302000Y-92795659D01*
X130302001Y-92795659D01*
X130360966Y-92790500D01*
X130537408Y-92775063D01*
X130765663Y-92713903D01*
X130979830Y-92614035D01*
X131173401Y-92478495D01*
X131340495Y-92311401D01*
X131470425Y-92125842D01*
X131525002Y-92082217D01*
X131594500Y-92075023D01*
X131656855Y-92106546D01*
X131673575Y-92125842D01*
X131803500Y-92311395D01*
X131803505Y-92311401D01*
X131970599Y-92478495D01*
X132067384Y-92546265D01*
X132164165Y-92614032D01*
X132164167Y-92614033D01*
X132164170Y-92614035D01*
X132378337Y-92713903D01*
X132606592Y-92775063D01*
X132783034Y-92790500D01*
X132841999Y-92795659D01*
X132842000Y-92795659D01*
X132842001Y-92795659D01*
X132900966Y-92790500D01*
X133077408Y-92775063D01*
X133305663Y-92713903D01*
X133519830Y-92614035D01*
X133713401Y-92478495D01*
X133880495Y-92311401D01*
X134010425Y-92125842D01*
X134065002Y-92082217D01*
X134134500Y-92075023D01*
X134196855Y-92106546D01*
X134213575Y-92125842D01*
X134343500Y-92311395D01*
X134343505Y-92311401D01*
X134510599Y-92478495D01*
X134607384Y-92546265D01*
X134704165Y-92614032D01*
X134704167Y-92614033D01*
X134704170Y-92614035D01*
X134918337Y-92713903D01*
X135146592Y-92775063D01*
X135323034Y-92790500D01*
X135381999Y-92795659D01*
X135382000Y-92795659D01*
X135382001Y-92795659D01*
X135440966Y-92790500D01*
X135617408Y-92775063D01*
X135845663Y-92713903D01*
X136059830Y-92614035D01*
X136253401Y-92478495D01*
X136420495Y-92311401D01*
X136550425Y-92125842D01*
X136605002Y-92082217D01*
X136674500Y-92075023D01*
X136736855Y-92106546D01*
X136753575Y-92125842D01*
X136883500Y-92311395D01*
X136883505Y-92311401D01*
X137050599Y-92478495D01*
X137147384Y-92546265D01*
X137244165Y-92614032D01*
X137244167Y-92614033D01*
X137244170Y-92614035D01*
X137458337Y-92713903D01*
X137686592Y-92775063D01*
X137863034Y-92790500D01*
X137921999Y-92795659D01*
X137922000Y-92795659D01*
X137922001Y-92795659D01*
X137980966Y-92790500D01*
X138157408Y-92775063D01*
X138385663Y-92713903D01*
X138599830Y-92614035D01*
X138793401Y-92478495D01*
X138960495Y-92311401D01*
X139090425Y-92125842D01*
X139145002Y-92082217D01*
X139214500Y-92075023D01*
X139276855Y-92106546D01*
X139293575Y-92125842D01*
X139423500Y-92311395D01*
X139423505Y-92311401D01*
X139590599Y-92478495D01*
X139687384Y-92546265D01*
X139784165Y-92614032D01*
X139784167Y-92614033D01*
X139784170Y-92614035D01*
X139998337Y-92713903D01*
X140226592Y-92775063D01*
X140403034Y-92790500D01*
X140461999Y-92795659D01*
X140462000Y-92795659D01*
X140462001Y-92795659D01*
X140520966Y-92790500D01*
X140697408Y-92775063D01*
X140925663Y-92713903D01*
X141139830Y-92614035D01*
X141333401Y-92478495D01*
X141500495Y-92311401D01*
X141630425Y-92125842D01*
X141685002Y-92082217D01*
X141754500Y-92075023D01*
X141816855Y-92106546D01*
X141833575Y-92125842D01*
X141963500Y-92311395D01*
X141963505Y-92311401D01*
X142130599Y-92478495D01*
X142227384Y-92546265D01*
X142324165Y-92614032D01*
X142324167Y-92614033D01*
X142324170Y-92614035D01*
X142538337Y-92713903D01*
X142766592Y-92775063D01*
X142943034Y-92790500D01*
X143001999Y-92795659D01*
X143002000Y-92795659D01*
X143002001Y-92795659D01*
X143060966Y-92790500D01*
X143237408Y-92775063D01*
X143465663Y-92713903D01*
X143679830Y-92614035D01*
X143873401Y-92478495D01*
X144040495Y-92311401D01*
X144170425Y-92125842D01*
X144225002Y-92082217D01*
X144294500Y-92075023D01*
X144356855Y-92106546D01*
X144373575Y-92125842D01*
X144503500Y-92311395D01*
X144503505Y-92311401D01*
X144670599Y-92478495D01*
X144767384Y-92546265D01*
X144864165Y-92614032D01*
X144864167Y-92614033D01*
X144864170Y-92614035D01*
X145078337Y-92713903D01*
X145306592Y-92775063D01*
X145483034Y-92790500D01*
X145541999Y-92795659D01*
X145542000Y-92795659D01*
X145542001Y-92795659D01*
X145600966Y-92790500D01*
X145777408Y-92775063D01*
X146005663Y-92713903D01*
X146219830Y-92614035D01*
X146413401Y-92478495D01*
X146580495Y-92311401D01*
X146710425Y-92125842D01*
X146765002Y-92082217D01*
X146834500Y-92075023D01*
X146896855Y-92106546D01*
X146913575Y-92125842D01*
X147043500Y-92311395D01*
X147043505Y-92311401D01*
X147210599Y-92478495D01*
X147307384Y-92546265D01*
X147404165Y-92614032D01*
X147404167Y-92614033D01*
X147404170Y-92614035D01*
X147618337Y-92713903D01*
X147846592Y-92775063D01*
X148023034Y-92790500D01*
X148081999Y-92795659D01*
X148082000Y-92795659D01*
X148082001Y-92795659D01*
X148140966Y-92790500D01*
X148317408Y-92775063D01*
X148545663Y-92713903D01*
X148759830Y-92614035D01*
X148953401Y-92478495D01*
X149120495Y-92311401D01*
X149250425Y-92125842D01*
X149305002Y-92082217D01*
X149374500Y-92075023D01*
X149436855Y-92106546D01*
X149453575Y-92125842D01*
X149583500Y-92311395D01*
X149583505Y-92311401D01*
X149750599Y-92478495D01*
X149847384Y-92546265D01*
X149944165Y-92614032D01*
X149944167Y-92614033D01*
X149944170Y-92614035D01*
X150158337Y-92713903D01*
X150386592Y-92775063D01*
X150563034Y-92790500D01*
X150621999Y-92795659D01*
X150622000Y-92795659D01*
X150622001Y-92795659D01*
X150680966Y-92790500D01*
X150857408Y-92775063D01*
X151085663Y-92713903D01*
X151299830Y-92614035D01*
X151493401Y-92478495D01*
X151660495Y-92311401D01*
X151790425Y-92125842D01*
X151845002Y-92082217D01*
X151914500Y-92075023D01*
X151976855Y-92106546D01*
X151993575Y-92125842D01*
X152123500Y-92311395D01*
X152123505Y-92311401D01*
X152290599Y-92478495D01*
X152387384Y-92546265D01*
X152484165Y-92614032D01*
X152484167Y-92614033D01*
X152484170Y-92614035D01*
X152698337Y-92713903D01*
X152926592Y-92775063D01*
X153103034Y-92790500D01*
X153161999Y-92795659D01*
X153162000Y-92795659D01*
X153162001Y-92795659D01*
X153220966Y-92790500D01*
X153397408Y-92775063D01*
X153625663Y-92713903D01*
X153839830Y-92614035D01*
X154033401Y-92478495D01*
X154200495Y-92311401D01*
X154330425Y-92125842D01*
X154385002Y-92082217D01*
X154454500Y-92075023D01*
X154516855Y-92106546D01*
X154533575Y-92125842D01*
X154663500Y-92311395D01*
X154663505Y-92311401D01*
X154830599Y-92478495D01*
X154927384Y-92546265D01*
X155024165Y-92614032D01*
X155024167Y-92614033D01*
X155024170Y-92614035D01*
X155238337Y-92713903D01*
X155466592Y-92775063D01*
X155643034Y-92790500D01*
X155701999Y-92795659D01*
X155702000Y-92795659D01*
X155702001Y-92795659D01*
X155760966Y-92790500D01*
X155937408Y-92775063D01*
X156165663Y-92713903D01*
X156379830Y-92614035D01*
X156573401Y-92478495D01*
X156740495Y-92311401D01*
X156870425Y-92125842D01*
X156925002Y-92082217D01*
X156994500Y-92075023D01*
X157056855Y-92106546D01*
X157073575Y-92125842D01*
X157203500Y-92311395D01*
X157203505Y-92311401D01*
X157370599Y-92478495D01*
X157467384Y-92546265D01*
X157564165Y-92614032D01*
X157564167Y-92614033D01*
X157564170Y-92614035D01*
X157778337Y-92713903D01*
X158006592Y-92775063D01*
X158183034Y-92790500D01*
X158241999Y-92795659D01*
X158242000Y-92795659D01*
X158242001Y-92795659D01*
X158300966Y-92790500D01*
X158477408Y-92775063D01*
X158705663Y-92713903D01*
X158919830Y-92614035D01*
X159113401Y-92478495D01*
X159280495Y-92311401D01*
X159410730Y-92125405D01*
X159465307Y-92081781D01*
X159534805Y-92074587D01*
X159597160Y-92106110D01*
X159613879Y-92125405D01*
X159743890Y-92311078D01*
X159910917Y-92478105D01*
X160104421Y-92613600D01*
X160318507Y-92713429D01*
X160318516Y-92713433D01*
X160532000Y-92770634D01*
X160532000Y-91875501D01*
X160639685Y-91924680D01*
X160746237Y-91940000D01*
X160817763Y-91940000D01*
X160924315Y-91924680D01*
X161032000Y-91875501D01*
X161032000Y-92770633D01*
X161245483Y-92713433D01*
X161245492Y-92713429D01*
X161459578Y-92613600D01*
X161653082Y-92478105D01*
X161820105Y-92311082D01*
X161950119Y-92125405D01*
X162004696Y-92081781D01*
X162074195Y-92074588D01*
X162136549Y-92106110D01*
X162153269Y-92125405D01*
X162283505Y-92311401D01*
X162450599Y-92478495D01*
X162547384Y-92546265D01*
X162644165Y-92614032D01*
X162644167Y-92614033D01*
X162644170Y-92614035D01*
X162858337Y-92713903D01*
X163086592Y-92775063D01*
X163263034Y-92790500D01*
X163321999Y-92795659D01*
X163322000Y-92795659D01*
X163322001Y-92795659D01*
X163380966Y-92790500D01*
X163557408Y-92775063D01*
X163785663Y-92713903D01*
X163999830Y-92614035D01*
X164193401Y-92478495D01*
X164360495Y-92311401D01*
X164496035Y-92117830D01*
X164595903Y-91903663D01*
X164657063Y-91675408D01*
X164677659Y-91440000D01*
X164657063Y-91204592D01*
X164595903Y-90976337D01*
X164496035Y-90762171D01*
X164492261Y-90756780D01*
X164360494Y-90568597D01*
X164193402Y-90401506D01*
X164193395Y-90401501D01*
X163999834Y-90265967D01*
X163999830Y-90265965D01*
X163999828Y-90265964D01*
X163785663Y-90166097D01*
X163785659Y-90166096D01*
X163785655Y-90166094D01*
X163557413Y-90104938D01*
X163557403Y-90104936D01*
X163322001Y-90084341D01*
X163321999Y-90084341D01*
X163086596Y-90104936D01*
X163086586Y-90104938D01*
X162858344Y-90166094D01*
X162858335Y-90166098D01*
X162644171Y-90265964D01*
X162644169Y-90265965D01*
X162450597Y-90401505D01*
X162283508Y-90568594D01*
X162153269Y-90754595D01*
X162098692Y-90798219D01*
X162029193Y-90805412D01*
X161966839Y-90773890D01*
X161950119Y-90754594D01*
X161820113Y-90568926D01*
X161820108Y-90568920D01*
X161653082Y-90401894D01*
X161459578Y-90266399D01*
X161245492Y-90166570D01*
X161245486Y-90166567D01*
X161032000Y-90109364D01*
X161032000Y-91004498D01*
X160924315Y-90955320D01*
X160817763Y-90940000D01*
X160746237Y-90940000D01*
X160639685Y-90955320D01*
X160532000Y-91004498D01*
X160532000Y-90109364D01*
X160531999Y-90109364D01*
X160318513Y-90166567D01*
X160318507Y-90166570D01*
X160104422Y-90266399D01*
X160104420Y-90266400D01*
X159910926Y-90401886D01*
X159910920Y-90401891D01*
X159743891Y-90568920D01*
X159743890Y-90568922D01*
X159613880Y-90754595D01*
X159559303Y-90798219D01*
X159489804Y-90805412D01*
X159427450Y-90773890D01*
X159410730Y-90754594D01*
X159280494Y-90568597D01*
X159113402Y-90401506D01*
X159113395Y-90401501D01*
X158919834Y-90265967D01*
X158919830Y-90265965D01*
X158919828Y-90265964D01*
X158705663Y-90166097D01*
X158705659Y-90166096D01*
X158705655Y-90166094D01*
X158477413Y-90104938D01*
X158477403Y-90104936D01*
X158242001Y-90084341D01*
X158241999Y-90084341D01*
X158006596Y-90104936D01*
X158006586Y-90104938D01*
X157778344Y-90166094D01*
X157778335Y-90166098D01*
X157564171Y-90265964D01*
X157564169Y-90265965D01*
X157370597Y-90401505D01*
X157203505Y-90568597D01*
X157073575Y-90754158D01*
X157018998Y-90797783D01*
X156949500Y-90804977D01*
X156887145Y-90773454D01*
X156870425Y-90754158D01*
X156740494Y-90568597D01*
X156573402Y-90401506D01*
X156573395Y-90401501D01*
X156379834Y-90265967D01*
X156379830Y-90265965D01*
X156379828Y-90265964D01*
X156165663Y-90166097D01*
X156165659Y-90166096D01*
X156165655Y-90166094D01*
X155937413Y-90104938D01*
X155937403Y-90104936D01*
X155702001Y-90084341D01*
X155701999Y-90084341D01*
X155466596Y-90104936D01*
X155466586Y-90104938D01*
X155238344Y-90166094D01*
X155238335Y-90166098D01*
X155024171Y-90265964D01*
X155024169Y-90265965D01*
X154830597Y-90401505D01*
X154663505Y-90568597D01*
X154533575Y-90754158D01*
X154478998Y-90797783D01*
X154409500Y-90804977D01*
X154347145Y-90773454D01*
X154330425Y-90754158D01*
X154200494Y-90568597D01*
X154033402Y-90401506D01*
X154033395Y-90401501D01*
X153839834Y-90265967D01*
X153839830Y-90265965D01*
X153839828Y-90265964D01*
X153625663Y-90166097D01*
X153625659Y-90166096D01*
X153625655Y-90166094D01*
X153397413Y-90104938D01*
X153397403Y-90104936D01*
X153162001Y-90084341D01*
X153161999Y-90084341D01*
X152926596Y-90104936D01*
X152926586Y-90104938D01*
X152698344Y-90166094D01*
X152698335Y-90166098D01*
X152484171Y-90265964D01*
X152484169Y-90265965D01*
X152290597Y-90401505D01*
X152123505Y-90568597D01*
X151993575Y-90754158D01*
X151938998Y-90797783D01*
X151869500Y-90804977D01*
X151807145Y-90773454D01*
X151790425Y-90754158D01*
X151660494Y-90568597D01*
X151493402Y-90401506D01*
X151493395Y-90401501D01*
X151299834Y-90265967D01*
X151299830Y-90265965D01*
X151299828Y-90265964D01*
X151085663Y-90166097D01*
X151085659Y-90166096D01*
X151085655Y-90166094D01*
X150857413Y-90104938D01*
X150857403Y-90104936D01*
X150622001Y-90084341D01*
X150621999Y-90084341D01*
X150386596Y-90104936D01*
X150386586Y-90104938D01*
X150158344Y-90166094D01*
X150158335Y-90166098D01*
X149944171Y-90265964D01*
X149944169Y-90265965D01*
X149750597Y-90401505D01*
X149583505Y-90568597D01*
X149453575Y-90754158D01*
X149398998Y-90797783D01*
X149329500Y-90804977D01*
X149267145Y-90773454D01*
X149250425Y-90754158D01*
X149120494Y-90568597D01*
X148953402Y-90401506D01*
X148953395Y-90401501D01*
X148759834Y-90265967D01*
X148759830Y-90265965D01*
X148759828Y-90265964D01*
X148545663Y-90166097D01*
X148545659Y-90166096D01*
X148545655Y-90166094D01*
X148317413Y-90104938D01*
X148317403Y-90104936D01*
X148082001Y-90084341D01*
X148081999Y-90084341D01*
X147846596Y-90104936D01*
X147846586Y-90104938D01*
X147618344Y-90166094D01*
X147618335Y-90166098D01*
X147404171Y-90265964D01*
X147404169Y-90265965D01*
X147210597Y-90401505D01*
X147043505Y-90568597D01*
X146913575Y-90754158D01*
X146858998Y-90797783D01*
X146789500Y-90804977D01*
X146727145Y-90773454D01*
X146710425Y-90754158D01*
X146580494Y-90568597D01*
X146413402Y-90401506D01*
X146413395Y-90401501D01*
X146219834Y-90265967D01*
X146219830Y-90265965D01*
X146219828Y-90265964D01*
X146005663Y-90166097D01*
X146005659Y-90166096D01*
X146005655Y-90166094D01*
X145777413Y-90104938D01*
X145777403Y-90104936D01*
X145542001Y-90084341D01*
X145541999Y-90084341D01*
X145306596Y-90104936D01*
X145306586Y-90104938D01*
X145078344Y-90166094D01*
X145078335Y-90166098D01*
X144864171Y-90265964D01*
X144864169Y-90265965D01*
X144670597Y-90401505D01*
X144503505Y-90568597D01*
X144373575Y-90754158D01*
X144318998Y-90797783D01*
X144249500Y-90804977D01*
X144187145Y-90773454D01*
X144170425Y-90754158D01*
X144040494Y-90568597D01*
X143873402Y-90401506D01*
X143873395Y-90401501D01*
X143679834Y-90265967D01*
X143679830Y-90265965D01*
X143679828Y-90265964D01*
X143465663Y-90166097D01*
X143465659Y-90166096D01*
X143465655Y-90166094D01*
X143237413Y-90104938D01*
X143237403Y-90104936D01*
X143002001Y-90084341D01*
X143001999Y-90084341D01*
X142766596Y-90104936D01*
X142766586Y-90104938D01*
X142538344Y-90166094D01*
X142538335Y-90166098D01*
X142324171Y-90265964D01*
X142324169Y-90265965D01*
X142130597Y-90401505D01*
X141963505Y-90568597D01*
X141833575Y-90754158D01*
X141778998Y-90797783D01*
X141709500Y-90804977D01*
X141647145Y-90773454D01*
X141630425Y-90754158D01*
X141500494Y-90568597D01*
X141333402Y-90401506D01*
X141333395Y-90401501D01*
X141139834Y-90265967D01*
X141139830Y-90265965D01*
X141139828Y-90265964D01*
X140925663Y-90166097D01*
X140925659Y-90166096D01*
X140925655Y-90166094D01*
X140697413Y-90104938D01*
X140697403Y-90104936D01*
X140462001Y-90084341D01*
X140461999Y-90084341D01*
X140226596Y-90104936D01*
X140226586Y-90104938D01*
X139998344Y-90166094D01*
X139998335Y-90166098D01*
X139784171Y-90265964D01*
X139784169Y-90265965D01*
X139590597Y-90401505D01*
X139423505Y-90568597D01*
X139293575Y-90754158D01*
X139238998Y-90797783D01*
X139169500Y-90804977D01*
X139107145Y-90773454D01*
X139090425Y-90754158D01*
X138960494Y-90568597D01*
X138793402Y-90401506D01*
X138793395Y-90401501D01*
X138599834Y-90265967D01*
X138599830Y-90265965D01*
X138599828Y-90265964D01*
X138385663Y-90166097D01*
X138385659Y-90166096D01*
X138385655Y-90166094D01*
X138157413Y-90104938D01*
X138157403Y-90104936D01*
X137922001Y-90084341D01*
X137921999Y-90084341D01*
X137686596Y-90104936D01*
X137686586Y-90104938D01*
X137458344Y-90166094D01*
X137458335Y-90166098D01*
X137244171Y-90265964D01*
X137244169Y-90265965D01*
X137050597Y-90401505D01*
X136883505Y-90568597D01*
X136753575Y-90754158D01*
X136698998Y-90797783D01*
X136629500Y-90804977D01*
X136567145Y-90773454D01*
X136550425Y-90754158D01*
X136420494Y-90568597D01*
X136253402Y-90401506D01*
X136253395Y-90401501D01*
X136059834Y-90265967D01*
X136059830Y-90265965D01*
X136059828Y-90265964D01*
X135845663Y-90166097D01*
X135845659Y-90166096D01*
X135845655Y-90166094D01*
X135617413Y-90104938D01*
X135617403Y-90104936D01*
X135382001Y-90084341D01*
X135381999Y-90084341D01*
X135146596Y-90104936D01*
X135146586Y-90104938D01*
X134918344Y-90166094D01*
X134918335Y-90166098D01*
X134704171Y-90265964D01*
X134704169Y-90265965D01*
X134510597Y-90401505D01*
X134343505Y-90568597D01*
X134213575Y-90754158D01*
X134158998Y-90797783D01*
X134089500Y-90804977D01*
X134027145Y-90773454D01*
X134010425Y-90754158D01*
X133880494Y-90568597D01*
X133713402Y-90401506D01*
X133713395Y-90401501D01*
X133519834Y-90265967D01*
X133519830Y-90265965D01*
X133519828Y-90265964D01*
X133305663Y-90166097D01*
X133305659Y-90166096D01*
X133305655Y-90166094D01*
X133077413Y-90104938D01*
X133077403Y-90104936D01*
X132842001Y-90084341D01*
X132841999Y-90084341D01*
X132606596Y-90104936D01*
X132606586Y-90104938D01*
X132378344Y-90166094D01*
X132378335Y-90166098D01*
X132164171Y-90265964D01*
X132164169Y-90265965D01*
X131970597Y-90401505D01*
X131803505Y-90568597D01*
X131673575Y-90754158D01*
X131618998Y-90797783D01*
X131549500Y-90804977D01*
X131487145Y-90773454D01*
X131470425Y-90754158D01*
X131340494Y-90568597D01*
X131173402Y-90401506D01*
X131173395Y-90401501D01*
X130979834Y-90265967D01*
X130979830Y-90265965D01*
X130979828Y-90265964D01*
X130765663Y-90166097D01*
X130765659Y-90166096D01*
X130765655Y-90166094D01*
X130537413Y-90104938D01*
X130537403Y-90104936D01*
X130302001Y-90084341D01*
X130301999Y-90084341D01*
X130066596Y-90104936D01*
X130066586Y-90104938D01*
X129838344Y-90166094D01*
X129838335Y-90166098D01*
X129624171Y-90265964D01*
X129624169Y-90265965D01*
X129430600Y-90401503D01*
X129308673Y-90523430D01*
X129247350Y-90556914D01*
X129177658Y-90551930D01*
X129121725Y-90510058D01*
X129104810Y-90479081D01*
X129055797Y-90347671D01*
X129055793Y-90347664D01*
X128969547Y-90232455D01*
X128969544Y-90232452D01*
X128854335Y-90146206D01*
X128854328Y-90146202D01*
X128719482Y-90095908D01*
X128719483Y-90095908D01*
X128659883Y-90089501D01*
X128659881Y-90089500D01*
X128659873Y-90089500D01*
X128659864Y-90089500D01*
X126864129Y-90089500D01*
X126864123Y-90089501D01*
X126804516Y-90095908D01*
X126669671Y-90146202D01*
X126669664Y-90146206D01*
X126554455Y-90232452D01*
X126554452Y-90232455D01*
X126468206Y-90347664D01*
X126468202Y-90347671D01*
X126417908Y-90482517D01*
X126411501Y-90542116D01*
X126411500Y-90542135D01*
X126411500Y-92337870D01*
X120142500Y-92337870D01*
X120142500Y-91220417D01*
X120143175Y-91186047D01*
X120143475Y-91180947D01*
X120146362Y-91131995D01*
X120147481Y-91116354D01*
X120149015Y-91096859D01*
X120151383Y-91066796D01*
X120165118Y-90950738D01*
X120165872Y-90945966D01*
X120188200Y-90833714D01*
X120189333Y-90828999D01*
X120220398Y-90718852D01*
X120221902Y-90714221D01*
X120261511Y-90606855D01*
X120263367Y-90602377D01*
X120311274Y-90498458D01*
X120313482Y-90494126D01*
X120365136Y-90401891D01*
X120369393Y-90394288D01*
X120371926Y-90390154D01*
X120435518Y-90294981D01*
X120438362Y-90291069D01*
X120457810Y-90266400D01*
X120509201Y-90201210D01*
X120512352Y-90197519D01*
X120590052Y-90113463D01*
X120593463Y-90110052D01*
X120677519Y-90032352D01*
X120681210Y-90029201D01*
X120771069Y-89958362D01*
X120774981Y-89955518D01*
X120870158Y-89891924D01*
X120874262Y-89889408D01*
X120974139Y-89833474D01*
X120978445Y-89831280D01*
X121082391Y-89783360D01*
X121086855Y-89781511D01*
X121194247Y-89741892D01*
X121198854Y-89740396D01*
X121308989Y-89709334D01*
X121313701Y-89708203D01*
X121425946Y-89685876D01*
X121430738Y-89685118D01*
X121546796Y-89671383D01*
X121576859Y-89669015D01*
X121596367Y-89667480D01*
X121612016Y-89666360D01*
X121666046Y-89663175D01*
X121700418Y-89662500D01*
X170399582Y-89662500D01*
X170433953Y-89663175D01*
G37*
%TD.AperFunction*%
%TD*%
M02*
