%TF.GenerationSoftware,KiCad,Pcbnew,7.0.9*%
%TF.CreationDate,2023-12-17T12:43:31-08:00*%
%TF.ProjectId,bt_aux,62745f61-7578-42e6-9b69-6361645f7063,rev?*%
%TF.SameCoordinates,Original*%
%TF.FileFunction,Copper,L1,Top*%
%TF.FilePolarity,Positive*%
%FSLAX46Y46*%
G04 Gerber Fmt 4.6, Leading zero omitted, Abs format (unit mm)*
G04 Created by KiCad (PCBNEW 7.0.9) date 2023-12-17 12:43:31*
%MOMM*%
%LPD*%
G01*
G04 APERTURE LIST*
G04 Aperture macros list*
%AMRoundRect*
0 Rectangle with rounded corners*
0 $1 Rounding radius*
0 $2 $3 $4 $5 $6 $7 $8 $9 X,Y pos of 4 corners*
0 Add a 4 corners polygon primitive as box body*
4,1,4,$2,$3,$4,$5,$6,$7,$8,$9,$2,$3,0*
0 Add four circle primitives for the rounded corners*
1,1,$1+$1,$2,$3*
1,1,$1+$1,$4,$5*
1,1,$1+$1,$6,$7*
1,1,$1+$1,$8,$9*
0 Add four rect primitives between the rounded corners*
20,1,$1+$1,$2,$3,$4,$5,0*
20,1,$1+$1,$4,$5,$6,$7,0*
20,1,$1+$1,$6,$7,$8,$9,0*
20,1,$1+$1,$8,$9,$2,$3,0*%
G04 Aperture macros list end*
%TA.AperFunction,SMDPad,CuDef*%
%ADD10RoundRect,0.250000X0.475000X-0.250000X0.475000X0.250000X-0.475000X0.250000X-0.475000X-0.250000X0*%
%TD*%
%TA.AperFunction,SMDPad,CuDef*%
%ADD11RoundRect,0.250000X-0.475000X0.250000X-0.475000X-0.250000X0.475000X-0.250000X0.475000X0.250000X0*%
%TD*%
%TA.AperFunction,SMDPad,CuDef*%
%ADD12R,1.500000X3.500000*%
%TD*%
%TA.AperFunction,SMDPad,CuDef*%
%ADD13RoundRect,0.250000X-0.262500X-0.450000X0.262500X-0.450000X0.262500X0.450000X-0.262500X0.450000X0*%
%TD*%
%TA.AperFunction,SMDPad,CuDef*%
%ADD14RoundRect,0.250000X0.250000X0.475000X-0.250000X0.475000X-0.250000X-0.475000X0.250000X-0.475000X0*%
%TD*%
%TA.AperFunction,ComponentPad*%
%ADD15R,1.700000X1.700000*%
%TD*%
%TA.AperFunction,ComponentPad*%
%ADD16O,1.700000X1.700000*%
%TD*%
%TA.AperFunction,SMDPad,CuDef*%
%ADD17RoundRect,0.250000X-0.250000X-0.475000X0.250000X-0.475000X0.250000X0.475000X-0.250000X0.475000X0*%
%TD*%
%TA.AperFunction,SMDPad,CuDef*%
%ADD18RoundRect,0.100000X0.637500X0.100000X-0.637500X0.100000X-0.637500X-0.100000X0.637500X-0.100000X0*%
%TD*%
%TA.AperFunction,ViaPad*%
%ADD19C,0.800000*%
%TD*%
%TA.AperFunction,Conductor*%
%ADD20C,0.250000*%
%TD*%
G04 APERTURE END LIST*
D10*
%TO.P,C8,1*%
%TO.N,/right*%
X153035000Y-102820000D03*
%TO.P,C8,2*%
%TO.N,GND*%
X153035000Y-100920000D03*
%TD*%
D11*
%TO.P,C13,1*%
%TO.N,Net-(U1-VNEG)*%
X140970000Y-105156000D03*
%TO.P,C13,2*%
%TO.N,GND*%
X140970000Y-107056000D03*
%TD*%
D12*
%TO.P,J3,R*%
%TO.N,/right*%
X164592000Y-107060000D03*
%TO.P,J3,S*%
%TO.N,GND*%
X166592000Y-99560000D03*
%TO.P,J3,T*%
%TO.N,/left*%
X159592000Y-99560000D03*
%TD*%
D13*
%TO.P,R1,1*%
%TO.N,Net-(U1-OUTL)*%
X148275000Y-105410000D03*
%TO.P,R1,2*%
%TO.N,/left*%
X150100000Y-105410000D03*
%TD*%
D14*
%TO.P,C15,1*%
%TO.N,+3.3V*%
X131445000Y-111760000D03*
%TO.P,C15,2*%
%TO.N,GND*%
X129545000Y-111760000D03*
%TD*%
D10*
%TO.P,C10,1*%
%TO.N,Net-(U1-LDOO)*%
X125730000Y-105735000D03*
%TO.P,C10,2*%
%TO.N,GND*%
X125730000Y-103835000D03*
%TD*%
D15*
%TO.P,J1,1,Pin_1*%
%TO.N,unconnected-(J1-Pin_1-Pad1)*%
X127762000Y-116840000D03*
D16*
%TO.P,J1,2,Pin_2*%
%TO.N,unconnected-(J1-Pin_2-Pad2)*%
X130302000Y-116840000D03*
%TO.P,J1,3,Pin_3*%
%TO.N,unconnected-(J1-Pin_3-Pad3)*%
X132842000Y-116840000D03*
%TO.P,J1,4,Pin_4*%
%TO.N,unconnected-(J1-Pin_4-Pad4)*%
X135382000Y-116840000D03*
%TO.P,J1,5,Pin_5*%
%TO.N,unconnected-(J1-Pin_5-Pad5)*%
X137922000Y-116840000D03*
%TO.P,J1,6,Pin_6*%
%TO.N,unconnected-(J1-Pin_6-Pad6)*%
X140462000Y-116840000D03*
%TO.P,J1,7,Pin_7*%
%TO.N,unconnected-(J1-Pin_7-Pad7)*%
X143002000Y-116840000D03*
%TO.P,J1,8,Pin_8*%
%TO.N,unconnected-(J1-Pin_8-Pad8)*%
X145542000Y-116840000D03*
%TO.P,J1,9,Pin_9*%
%TO.N,unconnected-(J1-Pin_9-Pad9)*%
X148082000Y-116840000D03*
%TO.P,J1,10,Pin_10*%
%TO.N,unconnected-(J1-Pin_10-Pad10)*%
X150622000Y-116840000D03*
%TO.P,J1,11,Pin_11*%
%TO.N,unconnected-(J1-Pin_11-Pad11)*%
X153162000Y-116840000D03*
%TO.P,J1,12,Pin_12*%
%TO.N,unconnected-(J1-Pin_12-Pad12)*%
X155702000Y-116840000D03*
%TO.P,J1,13,Pin_13*%
%TO.N,unconnected-(J1-Pin_13-Pad13)*%
X158242000Y-116840000D03*
%TO.P,J1,14,Pin_14*%
%TO.N,GND*%
X160782000Y-116840000D03*
%TO.P,J1,15,Pin_15*%
%TO.N,unconnected-(J1-Pin_15-Pad15)*%
X163322000Y-116840000D03*
%TD*%
D17*
%TO.P,C17,1*%
%TO.N,+3.3V*%
X138176000Y-111760000D03*
%TO.P,C17,2*%
%TO.N,GND*%
X140076000Y-111760000D03*
%TD*%
D11*
%TO.P,C7,1*%
%TO.N,/left*%
X153035000Y-105460000D03*
%TO.P,C7,2*%
%TO.N,GND*%
X153035000Y-107360000D03*
%TD*%
D10*
%TO.P,C12,1*%
%TO.N,+3.3V*%
X143510000Y-101600000D03*
%TO.P,C12,2*%
%TO.N,GND*%
X143510000Y-99700000D03*
%TD*%
%TO.P,C11,1*%
%TO.N,+3.3V*%
X140970000Y-101600000D03*
%TO.P,C11,2*%
%TO.N,GND*%
X140970000Y-99700000D03*
%TD*%
D18*
%TO.P,U1,1,CPVDD*%
%TO.N,+3.3V*%
X137912500Y-107035000D03*
%TO.P,U1,2,CAPP*%
%TO.N,Net-(U1-CAPP)*%
X137912500Y-106385000D03*
%TO.P,U1,3,CPGND*%
%TO.N,GND*%
X137912500Y-105735000D03*
%TO.P,U1,4,CAPM*%
%TO.N,Net-(U1-CAPM)*%
X137912500Y-105085000D03*
%TO.P,U1,5,VNEG*%
%TO.N,Net-(U1-VNEG)*%
X137912500Y-104435000D03*
%TO.P,U1,6,OUTL*%
%TO.N,Net-(U1-OUTL)*%
X137912500Y-103785000D03*
%TO.P,U1,7,OUTR*%
%TO.N,Net-(U1-OUTR)*%
X137912500Y-103135000D03*
%TO.P,U1,8,AVDD*%
%TO.N,+3.3V*%
X137912500Y-102485000D03*
%TO.P,U1,9,AGND*%
%TO.N,GND*%
X137912500Y-101835000D03*
%TO.P,U1,10,DEMP*%
X137912500Y-101185000D03*
%TO.P,U1,11,FLT*%
X132187500Y-101185000D03*
%TO.P,U1,12,SCK*%
%TO.N,/sck*%
X132187500Y-101835000D03*
%TO.P,U1,13,BCK*%
%TO.N,/bck*%
X132187500Y-102485000D03*
%TO.P,U1,14,DIN*%
%TO.N,/din*%
X132187500Y-103135000D03*
%TO.P,U1,15,LRCK*%
%TO.N,/lrck*%
X132187500Y-103785000D03*
%TO.P,U1,16,FMT*%
%TO.N,GND*%
X132187500Y-104435000D03*
%TO.P,U1,17,XSMT*%
%TO.N,+3.3V*%
X132187500Y-105085000D03*
%TO.P,U1,18,LDOO*%
%TO.N,Net-(U1-LDOO)*%
X132187500Y-105735000D03*
%TO.P,U1,19,DGND*%
%TO.N,GND*%
X132187500Y-106385000D03*
%TO.P,U1,20,DVDD*%
%TO.N,+3.3V*%
X132187500Y-107035000D03*
%TD*%
D14*
%TO.P,C14,1*%
%TO.N,+3.3V*%
X131445000Y-109220000D03*
%TO.P,C14,2*%
%TO.N,GND*%
X129545000Y-109220000D03*
%TD*%
D13*
%TO.P,R2,1*%
%TO.N,Net-(U1-OUTR)*%
X148275000Y-102870000D03*
%TO.P,R2,2*%
%TO.N,/right*%
X150100000Y-102870000D03*
%TD*%
D14*
%TO.P,C18,1*%
%TO.N,Net-(U1-CAPP)*%
X135890000Y-109220000D03*
%TO.P,C18,2*%
%TO.N,Net-(U1-CAPM)*%
X133990000Y-109220000D03*
%TD*%
D17*
%TO.P,C16,1*%
%TO.N,+3.3V*%
X138176000Y-109220000D03*
%TO.P,C16,2*%
%TO.N,GND*%
X140076000Y-109220000D03*
%TD*%
D10*
%TO.P,C9,1*%
%TO.N,Net-(U1-LDOO)*%
X128270000Y-105735000D03*
%TO.P,C9,2*%
%TO.N,GND*%
X128270000Y-103835000D03*
%TD*%
D15*
%TO.P,J2,1,Pin_1*%
%TO.N,/lrck*%
X127762000Y-91440000D03*
D16*
%TO.P,J2,2,Pin_2*%
%TO.N,/din*%
X130302000Y-91440000D03*
%TO.P,J2,3,Pin_3*%
%TO.N,unconnected-(J2-Pin_3-Pad3)*%
X132842000Y-91440000D03*
%TO.P,J2,4,Pin_4*%
%TO.N,unconnected-(J2-Pin_4-Pad4)*%
X135382000Y-91440000D03*
%TO.P,J2,5,Pin_5*%
%TO.N,/bck*%
X137922000Y-91440000D03*
%TO.P,J2,6,Pin_6*%
%TO.N,/sck*%
X140462000Y-91440000D03*
%TO.P,J2,7,Pin_7*%
%TO.N,unconnected-(J2-Pin_7-Pad7)*%
X143002000Y-91440000D03*
%TO.P,J2,8,Pin_8*%
%TO.N,unconnected-(J2-Pin_8-Pad8)*%
X145542000Y-91440000D03*
%TO.P,J2,9,Pin_9*%
%TO.N,unconnected-(J2-Pin_9-Pad9)*%
X148082000Y-91440000D03*
%TO.P,J2,10,Pin_10*%
%TO.N,unconnected-(J2-Pin_10-Pad10)*%
X150622000Y-91440000D03*
%TO.P,J2,11,Pin_11*%
%TO.N,unconnected-(J2-Pin_11-Pad11)*%
X153162000Y-91440000D03*
%TO.P,J2,12,Pin_12*%
%TO.N,unconnected-(J2-Pin_12-Pad12)*%
X155702000Y-91440000D03*
%TO.P,J2,13,Pin_13*%
%TO.N,unconnected-(J2-Pin_13-Pad13)*%
X158242000Y-91440000D03*
%TO.P,J2,14,Pin_14*%
%TO.N,GND*%
X160782000Y-91440000D03*
%TO.P,J2,15,Pin_15*%
%TO.N,+3.3V*%
X163322000Y-91440000D03*
%TD*%
D19*
%TO.N,GND*%
X142240000Y-112776000D03*
X124206000Y-112776000D03*
X129540000Y-107442000D03*
X142240000Y-98044000D03*
X147320000Y-107188000D03*
X168402000Y-99568000D03*
X154940000Y-109220000D03*
X150368000Y-113030000D03*
X123952000Y-103886000D03*
X134874000Y-98298000D03*
X124460000Y-108204000D03*
X143002000Y-107696000D03*
X134874000Y-103632000D03*
X154940000Y-101092000D03*
X134874000Y-101346000D03*
%TD*%
D20*
%TO.N,/left*%
X152985000Y-105410000D02*
X153035000Y-105460000D01*
X150100000Y-105410000D02*
X152985000Y-105410000D01*
X159592000Y-101774000D02*
X155906000Y-105460000D01*
X159592000Y-99560000D02*
X159592000Y-101774000D01*
X155906000Y-105460000D02*
X153035000Y-105460000D01*
%TO.N,GND*%
X139649000Y-105735000D02*
X137912500Y-105735000D01*
X140076000Y-108844000D02*
X140970000Y-107950000D01*
X128270000Y-103835000D02*
X125730000Y-103835000D01*
X153035000Y-100920000D02*
X154768000Y-100920000D01*
X137912500Y-101185000D02*
X137912500Y-101835000D01*
X140076000Y-109220000D02*
X140076000Y-108844000D01*
X168394000Y-99560000D02*
X168402000Y-99568000D01*
X137912500Y-101185000D02*
X136559000Y-101185000D01*
X140970000Y-107950000D02*
X140970000Y-107056000D01*
X132187500Y-101185000D02*
X133765000Y-101185000D01*
X154768000Y-100920000D02*
X154940000Y-101092000D01*
X140076000Y-109220000D02*
X140076000Y-111760000D01*
X132187500Y-104435000D02*
X133563000Y-104435000D01*
X136559000Y-101185000D02*
X136398000Y-101346000D01*
X133563000Y-104435000D02*
X133858000Y-104140000D01*
X130851000Y-106385000D02*
X130048000Y-107188000D01*
X129545000Y-109220000D02*
X129545000Y-111760000D01*
X132187500Y-106385000D02*
X130851000Y-106385000D01*
X140970000Y-107056000D02*
X139649000Y-105735000D01*
X166592000Y-99560000D02*
X168394000Y-99560000D01*
%TO.N,/right*%
X156972000Y-102108000D02*
X156260000Y-102820000D01*
X164592000Y-99314000D02*
X162052000Y-96774000D01*
X156260000Y-102820000D02*
X153035000Y-102820000D01*
X162052000Y-96774000D02*
X156972000Y-96774000D01*
X150100000Y-102870000D02*
X152985000Y-102870000D01*
X156972000Y-96774000D02*
X156972000Y-102108000D01*
X152985000Y-102870000D02*
X153035000Y-102820000D01*
X164592000Y-107060000D02*
X164592000Y-99314000D01*
%TO.N,Net-(U1-LDOO)*%
X128265000Y-105405000D02*
X128270000Y-105410000D01*
X128270000Y-105735000D02*
X125730000Y-105735000D01*
X128270000Y-105410000D02*
X128595000Y-105735000D01*
X128270000Y-105735000D02*
X132187500Y-105735000D01*
%TO.N,+3.3V*%
X138176000Y-111760000D02*
X138176000Y-107298500D01*
X140970000Y-101600000D02*
X143510000Y-101600000D01*
X132187500Y-105085000D02*
X134041000Y-105085000D01*
X140085000Y-102485000D02*
X137912500Y-102485000D01*
X134041000Y-105085000D02*
X135128000Y-106172000D01*
X134265000Y-107035000D02*
X132187500Y-107035000D01*
X146558000Y-101600000D02*
X143510000Y-101600000D01*
X131445000Y-107777500D02*
X132187500Y-107035000D01*
X137912500Y-102485000D02*
X136850000Y-102485000D01*
X136850000Y-104450000D02*
X134620000Y-106680000D01*
X160528000Y-94234000D02*
X153924000Y-94234000D01*
X134620000Y-106680000D02*
X134265000Y-107035000D01*
X131445000Y-111760000D02*
X138176000Y-111760000D01*
X131445000Y-109220000D02*
X131445000Y-107777500D01*
X131445000Y-111760000D02*
X131445000Y-109220000D01*
X136850000Y-102485000D02*
X136850000Y-104450000D01*
X138176000Y-107298500D02*
X137912500Y-107035000D01*
X163322000Y-91440000D02*
X160528000Y-94234000D01*
X140970000Y-101600000D02*
X140085000Y-102485000D01*
X153924000Y-94234000D02*
X146558000Y-101600000D01*
%TO.N,Net-(U1-VNEG)*%
X140249000Y-104435000D02*
X137912500Y-104435000D01*
X140970000Y-105156000D02*
X140249000Y-104435000D01*
%TO.N,Net-(U1-CAPP)*%
X135890000Y-107670001D02*
X137175001Y-106385000D01*
X135890000Y-109220000D02*
X135890000Y-107670001D01*
X137175001Y-106385000D02*
X137912500Y-106385000D01*
%TO.N,Net-(U1-CAPM)*%
X133990000Y-109220000D02*
X133990000Y-108270001D01*
X133990000Y-108270001D02*
X137175001Y-105085000D01*
X137175001Y-105085000D02*
X137912500Y-105085000D01*
%TO.N,/lrck*%
X131450001Y-103785000D02*
X127762000Y-100096999D01*
X127762000Y-100096999D02*
X127762000Y-91440000D01*
X132187500Y-103785000D02*
X131450001Y-103785000D01*
%TO.N,/din*%
X132187500Y-103135000D02*
X131450001Y-103135000D01*
X128524000Y-100208999D02*
X128524000Y-97790000D01*
X131450001Y-103135000D02*
X128524000Y-100208999D01*
X130302000Y-96012000D02*
X130302000Y-91440000D01*
X128524000Y-97790000D02*
X130302000Y-96012000D01*
%TO.N,/bck*%
X129794000Y-100828999D02*
X129794000Y-99568000D01*
X129794000Y-99568000D02*
X137922000Y-91440000D01*
X131450001Y-102485000D02*
X129794000Y-100828999D01*
X132187500Y-102485000D02*
X131450001Y-102485000D01*
%TO.N,/sck*%
X132187500Y-101835000D02*
X131450001Y-101835000D01*
X135128000Y-96774000D02*
X140462000Y-91440000D01*
X130302000Y-100686999D02*
X130302000Y-99822000D01*
X131450001Y-101835000D02*
X130302000Y-100686999D01*
X130302000Y-99822000D02*
X133350000Y-96774000D01*
X133350000Y-96774000D02*
X135128000Y-96774000D01*
%TO.N,Net-(U1-OUTL)*%
X148275000Y-105410000D02*
X146650000Y-103785000D01*
X146650000Y-103785000D02*
X137912500Y-103785000D01*
%TO.N,Net-(U1-OUTR)*%
X148010000Y-103135000D02*
X137912500Y-103135000D01*
X148275000Y-102870000D02*
X148010000Y-103135000D01*
%TD*%
%TA.AperFunction,Conductor*%
%TO.N,GND*%
G36*
X129158088Y-102381685D02*
G01*
X129178727Y-102398316D01*
X129503681Y-102723271D01*
X129537166Y-102784593D01*
X129540000Y-102810951D01*
X129540000Y-103019977D01*
X129520315Y-103087016D01*
X129467511Y-103132771D01*
X129398353Y-103142715D01*
X129334797Y-103113690D01*
X129328319Y-103107658D01*
X129213345Y-102992684D01*
X129064124Y-102900643D01*
X129064119Y-102900641D01*
X128897697Y-102845494D01*
X128897690Y-102845493D01*
X128794986Y-102835000D01*
X128520000Y-102835000D01*
X128520000Y-103961000D01*
X128500315Y-104028039D01*
X128447511Y-104073794D01*
X128396000Y-104085000D01*
X128144000Y-104085000D01*
X128076961Y-104065315D01*
X128031206Y-104012511D01*
X128020000Y-103961000D01*
X128020000Y-102835000D01*
X127745029Y-102835000D01*
X127745012Y-102835001D01*
X127642302Y-102845494D01*
X127475880Y-102900641D01*
X127475875Y-102900643D01*
X127326654Y-102992684D01*
X127202684Y-103116654D01*
X127106851Y-103272025D01*
X127104800Y-103270759D01*
X127066201Y-103314590D01*
X126999006Y-103333737D01*
X126932127Y-103313516D01*
X126895120Y-103270808D01*
X126893149Y-103272025D01*
X126797315Y-103116654D01*
X126673345Y-102992684D01*
X126524124Y-102900643D01*
X126524119Y-102900641D01*
X126357697Y-102845494D01*
X126357690Y-102845493D01*
X126254986Y-102835000D01*
X125980000Y-102835000D01*
X125980000Y-103961000D01*
X125960315Y-104028039D01*
X125907511Y-104073794D01*
X125856000Y-104085000D01*
X124505001Y-104085000D01*
X124505001Y-104134986D01*
X124515494Y-104237697D01*
X124570641Y-104404119D01*
X124570643Y-104404124D01*
X124662684Y-104553345D01*
X124677681Y-104568342D01*
X124711166Y-104629665D01*
X124714000Y-104656023D01*
X124714000Y-104913270D01*
X124694315Y-104980309D01*
X124677681Y-105000951D01*
X124662289Y-105016342D01*
X124570187Y-105165663D01*
X124570186Y-105165666D01*
X124515001Y-105332203D01*
X124515001Y-105332204D01*
X124515000Y-105332204D01*
X124504500Y-105434983D01*
X124504500Y-106035001D01*
X124504501Y-106035019D01*
X124515000Y-106137796D01*
X124515001Y-106137799D01*
X124570185Y-106304331D01*
X124570187Y-106304336D01*
X124662289Y-106453657D01*
X124677681Y-106469049D01*
X124711166Y-106530372D01*
X124714000Y-106556730D01*
X124714000Y-106680000D01*
X124946395Y-106680000D01*
X124985399Y-106686294D01*
X125102203Y-106724999D01*
X125204991Y-106735500D01*
X126255008Y-106735499D01*
X126255016Y-106735498D01*
X126255019Y-106735498D01*
X126311302Y-106729748D01*
X126357797Y-106724999D01*
X126474601Y-106686294D01*
X126513605Y-106680000D01*
X127486395Y-106680000D01*
X127525399Y-106686294D01*
X127642203Y-106724999D01*
X127744991Y-106735500D01*
X128795008Y-106735499D01*
X128795016Y-106735498D01*
X128795019Y-106735498D01*
X128851302Y-106729748D01*
X128897797Y-106724999D01*
X129014601Y-106686294D01*
X129053605Y-106680000D01*
X130178000Y-106680000D01*
X130245039Y-106699685D01*
X130290794Y-106752489D01*
X130302000Y-106804000D01*
X130302000Y-107954351D01*
X130282315Y-108021390D01*
X130229511Y-108067145D01*
X130160353Y-108077089D01*
X130121064Y-108062850D01*
X130120670Y-108063696D01*
X130114119Y-108060641D01*
X129947697Y-108005494D01*
X129947690Y-108005493D01*
X129844986Y-107995000D01*
X129795000Y-107995000D01*
X129795000Y-109346000D01*
X129775315Y-109413039D01*
X129722511Y-109458794D01*
X129671000Y-109470000D01*
X128545001Y-109470000D01*
X128545001Y-109744986D01*
X128555494Y-109847697D01*
X128610641Y-110014119D01*
X128610643Y-110014124D01*
X128702684Y-110163345D01*
X128826654Y-110287315D01*
X128982025Y-110383149D01*
X128980759Y-110385199D01*
X129024590Y-110423799D01*
X129043737Y-110490994D01*
X129023516Y-110557873D01*
X128980808Y-110594879D01*
X128982025Y-110596851D01*
X128826654Y-110692684D01*
X128702684Y-110816654D01*
X128610643Y-110965875D01*
X128610641Y-110965880D01*
X128555494Y-111132302D01*
X128555493Y-111132309D01*
X128545000Y-111235013D01*
X128545000Y-111510000D01*
X129671000Y-111510000D01*
X129738039Y-111529685D01*
X129783794Y-111582489D01*
X129795000Y-111634000D01*
X129795000Y-112984999D01*
X129844972Y-112984999D01*
X129844986Y-112984998D01*
X129947697Y-112974505D01*
X130114119Y-112919358D01*
X130120670Y-112916304D01*
X130121365Y-112917795D01*
X130180289Y-112901669D01*
X130246953Y-112922588D01*
X130291726Y-112976227D01*
X130302000Y-113025648D01*
X130302000Y-113414000D01*
X130282315Y-113481039D01*
X130229511Y-113526794D01*
X130178000Y-113538000D01*
X123568000Y-113538000D01*
X123500961Y-113518315D01*
X123455206Y-113465511D01*
X123444000Y-113414000D01*
X123444000Y-112010000D01*
X128545001Y-112010000D01*
X128545001Y-112284986D01*
X128555494Y-112387697D01*
X128610641Y-112554119D01*
X128610643Y-112554124D01*
X128702684Y-112703345D01*
X128826654Y-112827315D01*
X128975875Y-112919356D01*
X128975880Y-112919358D01*
X129142302Y-112974505D01*
X129142309Y-112974506D01*
X129245019Y-112984999D01*
X129294999Y-112984998D01*
X129295000Y-112984998D01*
X129295000Y-112010000D01*
X128545001Y-112010000D01*
X123444000Y-112010000D01*
X123444000Y-108970000D01*
X128545000Y-108970000D01*
X129295000Y-108970000D01*
X129295000Y-107995000D01*
X129294999Y-107994999D01*
X129245029Y-107995000D01*
X129245011Y-107995001D01*
X129142302Y-108005494D01*
X128975880Y-108060641D01*
X128975875Y-108060643D01*
X128826654Y-108152684D01*
X128702684Y-108276654D01*
X128610643Y-108425875D01*
X128610641Y-108425880D01*
X128555494Y-108592302D01*
X128555493Y-108592309D01*
X128545000Y-108695013D01*
X128545000Y-108970000D01*
X123444000Y-108970000D01*
X123444000Y-103585000D01*
X124505000Y-103585000D01*
X125480000Y-103585000D01*
X125480000Y-102835000D01*
X125205029Y-102835000D01*
X125205012Y-102835001D01*
X125102302Y-102845494D01*
X124935880Y-102900641D01*
X124935875Y-102900643D01*
X124786654Y-102992684D01*
X124662684Y-103116654D01*
X124570643Y-103265875D01*
X124570641Y-103265880D01*
X124515494Y-103432302D01*
X124515493Y-103432309D01*
X124505000Y-103535013D01*
X124505000Y-103585000D01*
X123444000Y-103585000D01*
X123444000Y-102486000D01*
X123463685Y-102418961D01*
X123516489Y-102373206D01*
X123568000Y-102362000D01*
X129091049Y-102362000D01*
X129158088Y-102381685D01*
G37*
%TD.AperFunction*%
%TD*%
%TA.AperFunction,Conductor*%
%TO.N,GND*%
G36*
X139849725Y-106191685D02*
G01*
X139895480Y-106244489D01*
X139905424Y-106313647D01*
X139888225Y-106361097D01*
X139810643Y-106486875D01*
X139810641Y-106486880D01*
X139755494Y-106653302D01*
X139755493Y-106653309D01*
X139745000Y-106756013D01*
X139745000Y-106806000D01*
X142194999Y-106806000D01*
X142194999Y-106756028D01*
X142194998Y-106756013D01*
X142184505Y-106653302D01*
X142129358Y-106486880D01*
X142129356Y-106486875D01*
X142051775Y-106361097D01*
X142033335Y-106293704D01*
X142054257Y-106227041D01*
X142107899Y-106182271D01*
X142157314Y-106172000D01*
X144263186Y-106172000D01*
X144280722Y-106173246D01*
X146050000Y-106426000D01*
X147466961Y-106426000D01*
X147534000Y-106445685D01*
X147543815Y-106452693D01*
X147543841Y-106452709D01*
X147543844Y-106452712D01*
X147693166Y-106544814D01*
X147859703Y-106599999D01*
X147962491Y-106610500D01*
X148587508Y-106610499D01*
X148587516Y-106610498D01*
X148587519Y-106610498D01*
X148643802Y-106604748D01*
X148690297Y-106599999D01*
X148856834Y-106544814D01*
X149006156Y-106452712D01*
X149006157Y-106452710D01*
X149012303Y-106448920D01*
X149012956Y-106449979D01*
X149070922Y-106426593D01*
X149083039Y-106426000D01*
X149291961Y-106426000D01*
X149359000Y-106445685D01*
X149368815Y-106452693D01*
X149368841Y-106452709D01*
X149368844Y-106452712D01*
X149518166Y-106544814D01*
X149684703Y-106599999D01*
X149787491Y-106610500D01*
X150412508Y-106610499D01*
X150412516Y-106610498D01*
X150412519Y-106610498D01*
X150468802Y-106604748D01*
X150515297Y-106599999D01*
X150681834Y-106544814D01*
X150831156Y-106452712D01*
X150831157Y-106452710D01*
X150837303Y-106448920D01*
X150837956Y-106449979D01*
X150895922Y-106426593D01*
X150908039Y-106426000D01*
X151883977Y-106426000D01*
X151951016Y-106445685D01*
X151996771Y-106498489D01*
X152006715Y-106567647D01*
X151977690Y-106631203D01*
X151971658Y-106637681D01*
X151967684Y-106641654D01*
X151875643Y-106790875D01*
X151875641Y-106790880D01*
X151820494Y-106957302D01*
X151820493Y-106957309D01*
X151810000Y-107060013D01*
X151810000Y-107110000D01*
X154259999Y-107110000D01*
X154259999Y-107060028D01*
X154259998Y-107060013D01*
X154249505Y-106957302D01*
X154194358Y-106790880D01*
X154194356Y-106790875D01*
X154102315Y-106641654D01*
X154098342Y-106637681D01*
X154064857Y-106576358D01*
X154069841Y-106506666D01*
X154111713Y-106450733D01*
X154177177Y-106426316D01*
X154186023Y-106426000D01*
X155578000Y-106426000D01*
X155645039Y-106445685D01*
X155690794Y-106498489D01*
X155702000Y-106550000D01*
X155702000Y-113668000D01*
X155682315Y-113735039D01*
X155629511Y-113780794D01*
X155578000Y-113792000D01*
X139570000Y-113792000D01*
X139502961Y-113772315D01*
X139457206Y-113719511D01*
X139446000Y-113668000D01*
X139446000Y-113070904D01*
X139465685Y-113003865D01*
X139518489Y-112958110D01*
X139587647Y-112948166D01*
X139609005Y-112953198D01*
X139673305Y-112974505D01*
X139673309Y-112974506D01*
X139776019Y-112984999D01*
X139825999Y-112984998D01*
X139826000Y-112984998D01*
X139826000Y-112010000D01*
X140326000Y-112010000D01*
X140326000Y-112984999D01*
X140375972Y-112984999D01*
X140375986Y-112984998D01*
X140478697Y-112974505D01*
X140645119Y-112919358D01*
X140645124Y-112919356D01*
X140794345Y-112827315D01*
X140918315Y-112703345D01*
X141010356Y-112554124D01*
X141010358Y-112554119D01*
X141065505Y-112387697D01*
X141065506Y-112387690D01*
X141075999Y-112284986D01*
X141076000Y-112284973D01*
X141076000Y-112010000D01*
X140326000Y-112010000D01*
X139826000Y-112010000D01*
X139826000Y-111634000D01*
X139845685Y-111566961D01*
X139898489Y-111521206D01*
X139950000Y-111510000D01*
X141075999Y-111510000D01*
X141075999Y-111235028D01*
X141075998Y-111235013D01*
X141065505Y-111132302D01*
X141010358Y-110965880D01*
X141010356Y-110965875D01*
X140918315Y-110816654D01*
X140794345Y-110692684D01*
X140638975Y-110596851D01*
X140640241Y-110594797D01*
X140596418Y-110556216D01*
X140577262Y-110489023D01*
X140597474Y-110422141D01*
X140640193Y-110385124D01*
X140638975Y-110383149D01*
X140794345Y-110287315D01*
X140918315Y-110163345D01*
X141010356Y-110014124D01*
X141010358Y-110014119D01*
X141065505Y-109847697D01*
X141065506Y-109847690D01*
X141075999Y-109744986D01*
X141076000Y-109744973D01*
X141076000Y-109470000D01*
X139950000Y-109470000D01*
X139882961Y-109450315D01*
X139837206Y-109397511D01*
X139826000Y-109346000D01*
X139826000Y-109094000D01*
X139845685Y-109026961D01*
X139898489Y-108981206D01*
X139950000Y-108970000D01*
X141075999Y-108970000D01*
X141075999Y-108695028D01*
X141075998Y-108695013D01*
X141065505Y-108592302D01*
X141010358Y-108425880D01*
X141010356Y-108425875D01*
X140918315Y-108276654D01*
X140794343Y-108152682D01*
X140778902Y-108143158D01*
X140732178Y-108091209D01*
X140720000Y-108037620D01*
X140720000Y-107306000D01*
X141220000Y-107306000D01*
X141220000Y-108055999D01*
X141494972Y-108055999D01*
X141494986Y-108055998D01*
X141597697Y-108045505D01*
X141764119Y-107990358D01*
X141764124Y-107990356D01*
X141913345Y-107898315D01*
X142037315Y-107774345D01*
X142129356Y-107625124D01*
X142129358Y-107625119D01*
X142134368Y-107610000D01*
X151810001Y-107610000D01*
X151810001Y-107659986D01*
X151820494Y-107762697D01*
X151875641Y-107929119D01*
X151875643Y-107929124D01*
X151967684Y-108078345D01*
X152091654Y-108202315D01*
X152240875Y-108294356D01*
X152240880Y-108294358D01*
X152407302Y-108349505D01*
X152407309Y-108349506D01*
X152510019Y-108359999D01*
X152784999Y-108359999D01*
X152785000Y-108359998D01*
X152785000Y-107610000D01*
X153285000Y-107610000D01*
X153285000Y-108359999D01*
X153559972Y-108359999D01*
X153559986Y-108359998D01*
X153662697Y-108349505D01*
X153829119Y-108294358D01*
X153829124Y-108294356D01*
X153978345Y-108202315D01*
X154102315Y-108078345D01*
X154194356Y-107929124D01*
X154194358Y-107929119D01*
X154249505Y-107762697D01*
X154249506Y-107762690D01*
X154259999Y-107659986D01*
X154260000Y-107659973D01*
X154260000Y-107610000D01*
X153285000Y-107610000D01*
X152785000Y-107610000D01*
X151810001Y-107610000D01*
X142134368Y-107610000D01*
X142184505Y-107458697D01*
X142184506Y-107458690D01*
X142194999Y-107355986D01*
X142195000Y-107355973D01*
X142195000Y-107306000D01*
X141220000Y-107306000D01*
X140720000Y-107306000D01*
X139745001Y-107306000D01*
X139745001Y-107355986D01*
X139755494Y-107458697D01*
X139810641Y-107625119D01*
X139810643Y-107625124D01*
X139902684Y-107774345D01*
X139911658Y-107783319D01*
X139945143Y-107844642D01*
X139940159Y-107914334D01*
X139898287Y-107970267D01*
X139832823Y-107994684D01*
X139823979Y-107995000D01*
X139776030Y-107995000D01*
X139776012Y-107995001D01*
X139673301Y-108005494D01*
X139609003Y-108026800D01*
X139539175Y-108029201D01*
X139479133Y-107993469D01*
X139447941Y-107930949D01*
X139446000Y-107909094D01*
X139446000Y-106296000D01*
X139465685Y-106228961D01*
X139518489Y-106183206D01*
X139570000Y-106172000D01*
X139782686Y-106172000D01*
X139849725Y-106191685D01*
G37*
%TD.AperFunction*%
%TD*%
%TA.AperFunction,Conductor*%
%TO.N,GND*%
G36*
X145231039Y-97555685D02*
G01*
X145276794Y-97608489D01*
X145288000Y-97660000D01*
X145288000Y-100460000D01*
X145268315Y-100527039D01*
X145215511Y-100572794D01*
X145164000Y-100584000D01*
X144697314Y-100584000D01*
X144630275Y-100564315D01*
X144584520Y-100511511D01*
X144574576Y-100442353D01*
X144591775Y-100394903D01*
X144669356Y-100269124D01*
X144669358Y-100269119D01*
X144724505Y-100102697D01*
X144724506Y-100102690D01*
X144734999Y-99999986D01*
X144735000Y-99999973D01*
X144735000Y-99950000D01*
X143384000Y-99950000D01*
X143316961Y-99930315D01*
X143271206Y-99877511D01*
X143260000Y-99826000D01*
X143260000Y-98700000D01*
X143760000Y-98700000D01*
X143760000Y-99450000D01*
X144734999Y-99450000D01*
X144734999Y-99400028D01*
X144734998Y-99400013D01*
X144724505Y-99297302D01*
X144669358Y-99130880D01*
X144669356Y-99130875D01*
X144577315Y-98981654D01*
X144453345Y-98857684D01*
X144304124Y-98765643D01*
X144304119Y-98765641D01*
X144137697Y-98710494D01*
X144137690Y-98710493D01*
X144034986Y-98700000D01*
X143760000Y-98700000D01*
X143260000Y-98700000D01*
X142985029Y-98700000D01*
X142985012Y-98700001D01*
X142882302Y-98710494D01*
X142715880Y-98765641D01*
X142715875Y-98765643D01*
X142566654Y-98857684D01*
X142442684Y-98981654D01*
X142346851Y-99137025D01*
X142344800Y-99135759D01*
X142306201Y-99179590D01*
X142239006Y-99198737D01*
X142172127Y-99178516D01*
X142135120Y-99135808D01*
X142133149Y-99137025D01*
X142037315Y-98981654D01*
X141913345Y-98857684D01*
X141764124Y-98765643D01*
X141764119Y-98765641D01*
X141597697Y-98710494D01*
X141597690Y-98710493D01*
X141494986Y-98700000D01*
X141220000Y-98700000D01*
X141220000Y-99826000D01*
X141200315Y-99893039D01*
X141147511Y-99938794D01*
X141096000Y-99950000D01*
X139745001Y-99950000D01*
X139745001Y-99999986D01*
X139755494Y-100102697D01*
X139810641Y-100269119D01*
X139810643Y-100269124D01*
X139888225Y-100394903D01*
X139906665Y-100462296D01*
X139885743Y-100528959D01*
X139832101Y-100573729D01*
X139782686Y-100584000D01*
X138924784Y-100584000D01*
X138859675Y-100564881D01*
X138859628Y-100564965D01*
X138859285Y-100564767D01*
X138857745Y-100564315D01*
X138854268Y-100561870D01*
X138852587Y-100560900D01*
X138706634Y-100500445D01*
X138706630Y-100500444D01*
X138589330Y-100485000D01*
X138112500Y-100485000D01*
X138112500Y-100584000D01*
X137712500Y-100584000D01*
X137712500Y-100485000D01*
X137235675Y-100485000D01*
X137118371Y-100500442D01*
X137118366Y-100500444D01*
X136972412Y-100560899D01*
X136965372Y-100564965D01*
X136964146Y-100562841D01*
X136910541Y-100583569D01*
X136906251Y-100583748D01*
X136892161Y-100597838D01*
X136886315Y-100617749D01*
X136857489Y-100649084D01*
X136847076Y-100657073D01*
X136750899Y-100782413D01*
X136690444Y-100928368D01*
X136682987Y-100985000D01*
X136906000Y-100985000D01*
X136906000Y-101385000D01*
X136682990Y-101385000D01*
X136682988Y-101385001D01*
X136690442Y-101441627D01*
X136690443Y-101441629D01*
X136699108Y-101462549D01*
X136706576Y-101532018D01*
X136699109Y-101557449D01*
X136690443Y-101578370D01*
X136682987Y-101635000D01*
X136695236Y-101648966D01*
X136714710Y-101654685D01*
X136760465Y-101707489D01*
X136770409Y-101776647D01*
X136741384Y-101840203D01*
X136693317Y-101874293D01*
X136639810Y-101895477D01*
X136636154Y-101896792D01*
X136581559Y-101914533D01*
X136581556Y-101914534D01*
X136574652Y-101918915D01*
X136553880Y-101929499D01*
X136546273Y-101932511D01*
X136546262Y-101932517D01*
X136499814Y-101966263D01*
X136496595Y-101968451D01*
X136448123Y-101999213D01*
X136448120Y-101999216D01*
X136442529Y-102005170D01*
X136425029Y-102020599D01*
X136418413Y-102025405D01*
X136418412Y-102025406D01*
X136381812Y-102069646D01*
X136379238Y-102072565D01*
X136339937Y-102114417D01*
X136339935Y-102114420D01*
X136335994Y-102121589D01*
X136322889Y-102140873D01*
X136317677Y-102147173D01*
X136317674Y-102147178D01*
X136293231Y-102199121D01*
X136291464Y-102202589D01*
X136263804Y-102252903D01*
X136263803Y-102252908D01*
X136261769Y-102260828D01*
X136253870Y-102282768D01*
X136250386Y-102290172D01*
X136250384Y-102290178D01*
X136239629Y-102346561D01*
X136238779Y-102350361D01*
X136224500Y-102405976D01*
X136224500Y-102414152D01*
X136222305Y-102437379D01*
X136220773Y-102445412D01*
X136224378Y-102502724D01*
X136224500Y-102506595D01*
X136224500Y-104139547D01*
X136204815Y-104206586D01*
X136188181Y-104227228D01*
X135803728Y-104611681D01*
X135742405Y-104645166D01*
X135716047Y-104648000D01*
X134539894Y-104648000D01*
X134472855Y-104628315D01*
X134457890Y-104617012D01*
X134455480Y-104614887D01*
X134449986Y-104610625D01*
X134445561Y-104606847D01*
X134411582Y-104574938D01*
X134411580Y-104574936D01*
X134411577Y-104574935D01*
X134394029Y-104565288D01*
X134377763Y-104554604D01*
X134361933Y-104542325D01*
X134319168Y-104523818D01*
X134313922Y-104521248D01*
X134273093Y-104498803D01*
X134273092Y-104498802D01*
X134253693Y-104493822D01*
X134235281Y-104487518D01*
X134216898Y-104479562D01*
X134216892Y-104479560D01*
X134170874Y-104472272D01*
X134165152Y-104471087D01*
X134120021Y-104459500D01*
X134120019Y-104459500D01*
X134099984Y-104459500D01*
X134080586Y-104457973D01*
X134073162Y-104456797D01*
X134060805Y-104454840D01*
X134060804Y-104454840D01*
X134014416Y-104459225D01*
X134008578Y-104459500D01*
X133548999Y-104459500D01*
X133481960Y-104439815D01*
X133436205Y-104387011D01*
X133424999Y-104335500D01*
X133424999Y-104295677D01*
X133409555Y-104178370D01*
X133409554Y-104178365D01*
X133401163Y-104158106D01*
X133393694Y-104088637D01*
X133401164Y-104063199D01*
X133410044Y-104041762D01*
X133425500Y-103924361D01*
X133425499Y-103645640D01*
X133410044Y-103528238D01*
X133401434Y-103507454D01*
X133393965Y-103437986D01*
X133401435Y-103412545D01*
X133410044Y-103391762D01*
X133425500Y-103274361D01*
X133425499Y-102995640D01*
X133410044Y-102878238D01*
X133401434Y-102857454D01*
X133393965Y-102787986D01*
X133401435Y-102762545D01*
X133410044Y-102741762D01*
X133425500Y-102624361D01*
X133425499Y-102345640D01*
X133410044Y-102228238D01*
X133401434Y-102207454D01*
X133393965Y-102137986D01*
X133401435Y-102112545D01*
X133410044Y-102091762D01*
X133425500Y-101974361D01*
X133425499Y-101695640D01*
X133425499Y-101695639D01*
X133425499Y-101695636D01*
X133410046Y-101578246D01*
X133410044Y-101578241D01*
X133410044Y-101578238D01*
X133401162Y-101556797D01*
X133393694Y-101487328D01*
X133401164Y-101461890D01*
X133409555Y-101441632D01*
X133409555Y-101441630D01*
X133417012Y-101385000D01*
X133374500Y-101385000D01*
X133350000Y-101377805D01*
X133350000Y-100985000D01*
X133417010Y-100985000D01*
X133417011Y-100984998D01*
X133409557Y-100928372D01*
X133409555Y-100928366D01*
X133359439Y-100807373D01*
X133350000Y-100759921D01*
X133350000Y-99450000D01*
X139745000Y-99450000D01*
X140720000Y-99450000D01*
X140720000Y-98700000D01*
X140445029Y-98700000D01*
X140445012Y-98700001D01*
X140342302Y-98710494D01*
X140175880Y-98765641D01*
X140175875Y-98765643D01*
X140026654Y-98857684D01*
X139902684Y-98981654D01*
X139810643Y-99130875D01*
X139810641Y-99130880D01*
X139755494Y-99297302D01*
X139755493Y-99297309D01*
X139745000Y-99400013D01*
X139745000Y-99450000D01*
X133350000Y-99450000D01*
X133350000Y-97709953D01*
X133369685Y-97642914D01*
X133386320Y-97622271D01*
X133436274Y-97572318D01*
X133497597Y-97538834D01*
X133523954Y-97536000D01*
X145164000Y-97536000D01*
X145231039Y-97555685D01*
G37*
%TD.AperFunction*%
%TD*%
M02*
